<svg xmlns="http://www.w3.org/2000/svg" width="110" height="60" fill="none">
  <path fill="url(#a)" d="M0 0h110v60H0z"/>
  <path fill="#fff" d="M65.186 20c-4.545 0-8.606 2.385-8.606 6.792 0 5.054 7.203 5.403 7.203 7.942 0 1.07-1.21 2.027-3.276 2.027-2.933 0-5.125-1.338-5.125-1.338l-.937 4.447S56.969 41 60.322 41c4.968 0 8.877-2.502 8.877-6.985 0-5.34-7.232-5.679-7.232-8.036 0-.837.993-1.755 3.053-1.755 2.325 0 4.222.973 4.222.973l.918-4.295S68.096 20 65.186 20Zm-41.576.324-.11.648s1.912.355 3.634 1.062c2.217.81 2.375 1.282 2.748 2.748l4.069 15.884h5.454l8.403-20.342h-5.442l-5.4 13.83-2.202-11.723c-.203-1.341-1.226-2.107-2.479-2.107H23.61Zm26.386 0-4.269 20.342h5.189l4.254-20.342h-5.174Zm28.941 0c-1.251 0-1.914.679-2.4 1.864l-7.603 18.478h5.442l1.053-3.08h6.63l.64 3.08H87.5l-4.189-20.342h-4.374Zm.708 5.496 1.613 7.633h-4.321l2.708-7.633Z"/>
  <defs>
    <linearGradient id="a" x1="-14.575" x2="104.828" y1="40.389" y2="-30.756" gradientUnits="userSpaceOnUse">
      <stop offset="0" stop-color="#0C4AD8"/>
      <stop offset=".5" stop-color="#0373FC"/>
      <stop offset=".969" stop-color="#3A93FF"/>
    </linearGradient>
  </defs>
</svg>
