<svg xmlns="http://www.w3.org/2000/svg" width="505" height="360" fill="none">
  <path fill="#fff" d="M420.329 51.483c13.716 0 24.834-11.133 24.834-24.866 0-13.734-11.118-24.867-24.834-24.867-13.715 0-24.834 11.133-24.834 24.867 0 13.733 11.119 24.866 24.834 24.866Z"/>
  <path fill="#231F20" d="M420.346 52.317a25.66 25.66 0 0 1-15.087-4.906 25.714 25.714 0 0 1-9.331-12.844 25.723 25.723 0 0 1 1.539-19.603 25.67 25.67 0 0 1 14.931-12.772 25.626 25.626 0 0 1 19.577 1.54 25.684 25.684 0 0 1 12.756 14.951 25.697 25.697 0 0 1-3.624 23.046 25.64 25.64 0 0 1-9.11 7.792 25.602 25.602 0 0 1-11.651 2.796Zm0-49.734a24.356 24.356 0 0 0-7.44 1.184 24.014 24.014 0 0 0-11.448 7.978 24.07 24.07 0 0 0-2.106 26.646 24.032 24.032 0 0 0 10.053 9.682 23.992 23.992 0 0 0 26.509-3.144 24.05 24.05 0 0 0 7.516-11.765 24.08 24.08 0 0 0-.281-13.964 24.08 24.08 0 0 0-8.702-12.036 24.033 24.033 0 0 0-14.101-4.63v.05Z"/>
  <path fill="#D1D3D4" d="M420.346 47.333a20.654 20.654 0 0 1-10.11-2.63 20.69 20.69 0 0 1-7.535-7.245 20.721 20.721 0 0 1-.797-20.225 20.691 20.691 0 0 1 6.598-7.582 20.66 20.66 0 0 1 19.352-2.295 20.67 20.67 0 0 1 8.185 5.83 20.725 20.725 0 0 1-.808 27.787 20.673 20.673 0 0 1-14.885 6.36Zm0-39.766a19.027 19.027 0 0 0-12.664 4.784 19.085 19.085 0 0 0-3.027 25.155 19.037 19.037 0 0 0 11.167 7.66 19.02 19.02 0 0 0 13.428-1.705 19.06 19.06 0 0 0 8.904-10.209 19.087 19.087 0 0 0-.12-13.553 19.058 19.058 0 0 0-9.082-10.049 18.876 18.876 0 0 0-8.606-2.083Z"/>
  <path fill="url(#a)" d="m424.441 36.017.849 2.583-2.064.667-.866-2.7c-4.244.883-7.873-.35-9.804-4.15l4.145-2.2a4.291 4.291 0 0 0 4.411 2.483l-1.498-4.367c-3.729.267-7.873.384-9.055-3.333-1.065-3.333 1.065-6.4 5.393-7.983l-.749-2.334 2.047-.666.782 2.4c3.929-.767 7.274.466 8.989 3.333l-4.062 2.383a3.978 3.978 0 0 0-3.662-1.766l1.216 3.733c3.828-.35 8.522-.583 9.886 3.633 1.099 3.334-1.148 6.6-5.958 8.284Zm-6.076-11.667-1.115-3.433c-1.664.616-2.43 1.583-2.08 2.616.349 1.034 1.464.867 3.129.767l.066.05Zm7.574 5c-.366-1.133-1.998-1.233-4.045-1.117l1.315 4.067c2.131-.85 3.013-1.967 2.663-3.033l.067.083Z"/>
  <path fill="#fff" d="M440.569 64.1c13.716 0 24.834-11.133 24.834-24.867 0-13.733-11.118-24.866-24.834-24.866-13.715 0-24.834 11.133-24.834 24.866 0 13.734 11.119 24.867 24.834 24.867Z"/>
  <path fill="#231F20" d="M440.553 65a25.404 25.404 0 0 1-9.987-2.033 25.654 25.654 0 0 1-11.457-9.536 25.705 25.705 0 0 1 .19-28.55 25.655 25.655 0 0 1 11.583-9.381 25.62 25.62 0 0 1 21.833 1.243 25.656 25.656 0 0 1 8.443 7.375 25.709 25.709 0 0 1-.86 31.506 25.655 25.655 0 0 1-8.833 6.902A25.62 25.62 0 0 1 440.536 65h.017Zm0-49.733a23.978 23.978 0 0 0-12.343 3.384 24.026 24.026 0 0 0-8.851 9.255 24.053 24.053 0 0 0 10.787 33.08 23.974 23.974 0 0 0 24.559-2.32 24.026 24.026 0 0 0 7.919-10.066 24.087 24.087 0 0 0-2.139-22.573 24.03 24.03 0 0 0-8.62-7.88 23.993 23.993 0 0 0-11.312-2.88Z"/>
  <path fill="#D1D3D4" d="M440.553 60a20.707 20.707 0 0 1-13.938-5.369 20.772 20.772 0 0 1-2.719-27.764 20.701 20.701 0 0 1 27.338-5.381 20.744 20.744 0 0 1 9.145 11.821 20.778 20.778 0 0 1-1.165 14.908 20.737 20.737 0 0 1-10.871 10.252 20.6 20.6 0 0 1-7.79 1.533Zm0-39.767a19.006 19.006 0 0 0-9.773 2.7 19.041 19.041 0 0 0-7.001 7.34 19.074 19.074 0 0 0 .913 19.547 19.034 19.034 0 0 0 7.655 6.655 19.004 19.004 0 0 0 19.456-1.837 19.046 19.046 0 0 0 6.277-7.971 19.082 19.082 0 0 0 .12-14.603 19.04 19.04 0 0 0-10.24-10.397 19.088 19.088 0 0 0-7.391-1.484l-.016.05Z"/>
  <path fill="#D1D3D4" d="m437.49 48.983-1.065 2.5-1.981-.833 1.099-2.617c-3.795-2.116-5.71-5.416-4.694-9.566l4.577 1.05a4.324 4.324 0 0 0 1.665 4.783l1.83-4.3c-2.979-2.233-6.191-4.867-4.693-8.333 1.331-3.184 4.993-4.134 9.287-2.5l.949-2.25 1.998.85-.983 2.233c3.479 2 5.194 5.133 4.644 8.333l-4.627-.85a3.976 3.976 0 0 0-1.664-3.733l-1.532 3.617c3.13 2.233 6.841 5.133 5.11 9.216-1.331 3.417-5.143 4.334-9.92 2.4Zm3.063-12.833 1.398-3.333c-1.665-.6-2.863-.4-3.329.616-.466 1.017.599 1.7 1.931 2.717Zm2.463 8.717c.466-1.117-.682-2.234-2.314-3.5l-1.664 3.95c2.164.85 3.545.583 3.978-.45Z"/>
  <path fill="#fff" d="M410.309 64.067c13.716 0 24.834-11.134 24.834-24.867 0-13.734-11.118-24.867-24.834-24.867-13.715 0-24.834 11.133-24.834 24.867 0 13.733 11.119 24.867 24.834 24.867Z"/>
  <path fill="#231F20" d="M410.326 64.883a25.626 25.626 0 0 1-13.402-3.781 25.676 25.676 0 0 1-9.454-10.235 25.713 25.713 0 0 1 2.094-26.755 25.657 25.657 0 0 1 10.931-8.636 25.617 25.617 0 0 1 26.474 4.186 25.696 25.696 0 0 1 8.687 23.544 25.689 25.689 0 0 1-13.684 18.875 25.626 25.626 0 0 1-11.646 2.802Zm0-49.733a24.357 24.357 0 0 0-7.44 1.183 23.874 23.874 0 0 0-13.425 11.07 23.92 23.92 0 0 0 7.597 31.53 23.845 23.845 0 0 0 31.991-5.089 23.925 23.925 0 0 0-2.533-32.335 23.853 23.853 0 0 0-16.19-6.36Z"/>
  <path fill="#D1D3D4" d="M410.309 59.9a20.675 20.675 0 0 1-14.047-5.497 20.736 20.736 0 0 1-2.217-28.037 20.668 20.668 0 0 1 27.741-4.413 20.719 20.719 0 0 1 8.629 12.385 20.743 20.743 0 0 1-2.06 14.96A20.695 20.695 0 0 1 410.309 59.9Zm0-39.75a19.005 19.005 0 0 0-11.187 3.624 19.068 19.068 0 0 0-.038 30.824 19.01 19.01 0 0 0 22.366.027 19.068 19.068 0 0 0 6.935-21.291 19.076 19.076 0 0 0-6.905-9.502 19.04 19.04 0 0 0-11.154-3.649l-.017-.033Z"/>
  <path fill="#D1D3D4" d="m414.354 48.583.832 2.584-2.047.666-.866-2.683c-4.261.867-7.873-.367-9.804-4.167l4.145-2.2a4.282 4.282 0 0 0 4.394 2.484l-1.431-4.4c-3.712.266-7.857.383-9.038-3.334-1.066-3.333 1.065-6.4 5.393-7.983l-.766-2.317 2.064-.683.766 2.417c3.944-.784 7.29.45 8.988 3.333l-4.045 2.383a3.98 3.98 0 0 0-3.678-1.766l1.215 3.733c3.828-.35 8.538-.583 9.903 3.633 1.082 3.35-1.148 6.617-6.025 8.3Zm-6.075-11.666-1.116-3.434c-1.664.617-2.43 1.584-2.097 2.617.333 1.033 1.548.867 3.213.767v.05Zm7.573 5c-.383-1.134-1.998-1.234-4.061-1.117l1.331 4.083c2.197-.866 3.079-1.983 2.73-3.05v.084Z"/>
  <path fill="#fff" d="M192.596 273.333 187.603 290l47.587-.783c-2.563-11.117-24.434-15.867-24.434-15.867l-18.16-.017Z"/>
  <path fill="#231F20" d="M187.686 290.767a.852.852 0 0 1-.666-.334.884.884 0 0 1-.133-.733l4.91-16.667a.818.818 0 0 1 .799-.6h18.409c.916.2 22.437 5 25.084 16.484a.821.821 0 0 1-.167.7.84.84 0 0 1-.632.333l-47.587.783-.017.034Zm5.526-16.667-4.411 15 45.374-.75c-3.329-9.45-22.005-13.9-23.436-14.217l-17.527-.033Z"/>
  <path fill="#fff" d="M242.797 133.1c.499 0 10.219-3.233 10.219-3.233s5.527-10.234 7.041-8.55a4.738 4.738 0 0 1 1.332 3.333s3.845-4.35 5.359-2.35c1.515 2 4.994 12.583 1.848 14.583s-24.618 10.6-24.618 10.6l-1.181-14.383Z"/>
  <path fill="#231F20" d="M243.978 148.333a.865.865 0 0 1-.832-.767l-1.165-14.399a.787.787 0 0 1 .183-.6.776.776 0 0 1 .533-.284c.616-.133 6.158-1.933 9.754-3.1 1.531-2.816 4.993-8.633 7.007-8.866a1.326 1.326 0 0 1 1.215.45 6.149 6.149 0 0 1 1.282 2.166 6.42 6.42 0 0 1 3.828-1.966 2.041 2.041 0 0 1 1.664.85c1.299 1.666 3.912 9.1 3.163 13.166a3.777 3.777 0 0 1-1.548 2.634c-3.212 2.016-23.869 10.3-24.734 10.65a.714.714 0 0 1-.35.066Zm-.283-14.6 1.016 12.567c4.344-1.75 20.756-8.333 23.436-10.1a2.233 2.233 0 0 0 .799-1.517c.649-3.516-1.765-10.383-2.863-11.866a.41.41 0 0 0-.158-.143.409.409 0 0 0-.209-.041c-.898 0-2.729 1.484-3.695 2.584a.85.85 0 0 1-.965.216.832.832 0 0 1-.499-.85 3.818 3.818 0 0 0-1.016-2.583c-.965.45-3.545 4.117-5.792 8.333a.82.82 0 0 1-.466.384c-3.612 1.116-7.823 2.5-9.588 3.016Z"/>
  <path fill="#fff" d="M67.211 323.55s-8.788 20.117-8.322 23.633c.466 3.517 21.355 10.434 21.355 10.434l23.919.633a24.999 24.999 0 0 0-6.242-7.433c-5.46-4.167-10.42-7.45-10.919-8.917a107.574 107.574 0 0 1-1.748-11.317l-18.043-7.033Z"/>
  <path fill="#231F20" d="m104.196 359.083-23.919-.633h-.25c-4.993-1.667-21.388-7.367-21.92-11.117-.533-3.75 7.44-22 8.322-24.083a.828.828 0 0 1 1.065-.433l18.076 7.016a.898.898 0 0 1 .533.684c.356 3.749.912 7.476 1.665 11.166.282.834 3.462 3.184 6.558 5.467 1.265.933 2.646 1.95 4.06 3.033a25.02 25.02 0 0 1 6.559 7.917.842.842 0 0 1-.167.717.875.875 0 0 1-.582.266Zm-23.769-2.3 22.354.584a27.692 27.692 0 0 0-5.326-5.884c-1.415-1.083-2.78-2.083-4.062-3.033-4.527-3.333-6.657-5-7.14-6.283a92.18 92.18 0 0 1-1.665-10.984l-16.877-6.566c-3.33 7.766-8.323 20.133-7.907 22.45.2 1.85 10.853 6.483 20.623 9.716Z"/>
  <path fill="url(#b)" d="M181.211 92.017s27.114 49.75 31.126 48.75c4.011-1 32.823-10.55 32.823-10.55l5.094 17.283s-35.187 29-44.608 22.967c-14.831-9.5-24.435-36.067-24.435-36.067V92.017Z"/>
  <path fill="#fff" d="m83.086 227.987-60.049-21.482a6.507 6.507 0 0 0-8.318 3.945l-12.37 34.67a6.518 6.518 0 0 0 3.939 8.329l60.049 21.482a6.506 6.506 0 0 0 8.318-3.944l12.37-34.671a6.519 6.519 0 0 0-3.939-8.329Z"/>
  <path fill="#231F20" d="M68.543 276.15a7.135 7.135 0 0 1-2.48-.433L6.025 254.25a7.41 7.41 0 0 1-4.178-3.783 7.31 7.31 0 0 1-.266-5.617l12.367-34.683a7.346 7.346 0 0 1 3.76-4.159 7.328 7.328 0 0 1 5.595-.291L83.356 227.2a7.36 7.36 0 0 1 4.161 3.781 7.374 7.374 0 0 1 .283 5.619l-12.367 34.683a7.348 7.348 0 0 1-2.685 3.528 7.333 7.333 0 0 1-4.223 1.339h.017Zm-1.964-2a5.67 5.67 0 0 0 4.338-.212 5.68 5.68 0 0 0 2.919-3.221l12.367-34.684a5.706 5.706 0 0 0-.218-4.341 5.693 5.693 0 0 0-3.21-2.925L22.77 207.3a5.67 5.67 0 0 0-4.339.212 5.683 5.683 0 0 0-2.918 3.221L3.146 245.417a5.689 5.689 0 0 0 3.512 7.25l59.92 21.483Z"/>
  <path fill="#D1D3D4" d="M77.148 240.983a.748.748 0 0 1-.283 0l-57.174-20.5a.822.822 0 0 1-.48-.425.833.833 0 0 1-.036-.641.833.833 0 0 1 1.065-.5l57.175 20.45a.847.847 0 0 1 .515 1.066.86.86 0 0 1-.782.55Z"/>
  <path fill="#231F20" d="M66.429 222.867a.84.84 0 0 1-.283 0L39.514 213.3a.765.765 0 0 1-.466-.417.8.8 0 0 1 0-.65l1.831-5.116a5.73 5.73 0 0 1 5.123-3.817 5.735 5.735 0 0 1 2.218.333l17.46 6.25a5.733 5.733 0 0 1 3.479 7.35l-1.831 5.117a.855.855 0 0 1-.782.567l-.117-.05Zm-25.65-10.9 25.15 9 1.549-4.334a4.121 4.121 0 0 0-2.48-5.233l-17.444-6.25a4.107 4.107 0 0 0-3.123.166 4.116 4.116 0 0 0-2.104 2.317l-1.547 4.334Z"/>
  <path fill="#fff" d="M71.372 191.167s-1.847 5-2.763 8.616a48.69 48.69 0 0 0-.682 10.384c-.982-.967-2.43-1.1-3.446-1.934a13.15 13.15 0 0 1-.649 4.417 4.468 4.468 0 0 1-3.145 2.917 5.623 5.623 0 0 1-2.347-.167c-2.797-.617-7.44-1.833-8.323-5a6.826 6.826 0 0 1 .383-3.767c1.665-5 9.704-18.466 11.035-20.633"/>
  <path fill="#231F20" d="M60.004 216.467a8.347 8.347 0 0 1-1.847-.25c-2.364-.534-7.89-1.767-8.955-5.65a7.512 7.512 0 0 1 .4-4.234C51.398 200.75 60.62 185.65 60.72 185.5a.832.832 0 0 1 1.52.253.835.835 0 0 1-.105.63c-2.38 3.867-9.505 15.934-10.953 20.45a6.06 6.06 0 0 0-.366 3.334c.7 2.583 4.494 3.733 7.707 4.45a4.847 4.847 0 0 0 2.014.166 3.724 3.724 0 0 0 2.53-2.4c.414-1.343.61-2.744.582-4.15a.829.829 0 0 1 .5-.733.853.853 0 0 1 .865.117c.426.318.897.571 1.398.75l.633.266a53.094 53.094 0 0 1 .749-9.016c.915-3.667 2.73-8.5 2.796-8.7a.811.811 0 0 1 .43-.467.82.82 0 0 1 .635-.017.836.836 0 0 1 .5 1.067s-1.848 5-2.747 8.517a49.768 49.768 0 0 0-.649 10.15.799.799 0 0 1-.2.6.85.85 0 0 1-1.115.116h-.1c-.463-.4-1-.706-1.58-.9l-.5-.216a11.5 11.5 0 0 1-.65 3.333 5.35 5.35 0 0 1-3.761 3.433 3.662 3.662 0 0 1-.849-.066Z"/>
  <path fill="url(#c)" d="M131.66 122.967c-1.415.783-52.648 62.1-59.588 74.416l-16.645-8.216s17.077-37.767 56.509-86.25c17.044-10.967 19.724 20.05 19.724 20.05Z"/>
  <path fill="#231F20" d="M178.947 170.467s53.264 22.016 54.595 33.016c1.332 11-17.81 69.85-17.81 69.85h-27.88s11.169-47.266 8.206-49.566c-2.963-2.3-46.106-13.567-46.106-13.567L88.1 334.333l-25.849-6.983 44.941-149.9 71.755-6.983Z"/>
  <path fill="#231F20" d="M88.1 335.117h-.216l-25.85-6.934a.865.865 0 0 1-.582-1.05l44.941-149.9a.85.85 0 0 1 .716-.583l71.689-6.967a.841.841 0 0 1 .399 0c2.197.9 53.779 22.334 55.094 33.684 1.282 11.05-17.061 67.75-17.843 70.15a.781.781 0 0 1-.782.566h-27.814a.792.792 0 0 1-.805-.641.863.863 0 0 1 .007-.375c5.276-22.334 9.887-46.667 8.455-48.767-1.997-1.55-27.83-8.667-45.124-13.183L88.8 334.633a.815.815 0 0 1-.7.484Zm-24.817-8.334 24.385 6.55L149.253 209.8a.836.836 0 0 1 .949-.433c4.444 1.166 43.41 11.366 46.422 13.7 3.013 2.333-4.178 34.516-7.673 49.4h26.232c1.964-6.1 18.742-58.75 17.577-68.884-.982-8.583-39.049-26.116-53.896-32.25l-70.923 6.9-44.658 148.55Z"/>
  <path fill="#fff" d="m178.947 170.467-60.52 11.2 14.98-89.517s9.138-6.567 16.545-6.533c8.839 0 16.379 6.833 19.342 8.533 5.476 3.2 9.653 76.317 9.653 76.317Z"/>
  <path fill="#231F20" d="M118.427 182.567a.852.852 0 0 1-.805-.588.831.831 0 0 1-.027-.396l14.98-89.5a.828.828 0 0 1 .333-.533c.383-.283 9.388-6.667 16.961-6.667 7.34 0 13.732 4.517 17.56 7.184.866.616 1.665 1.15 2.181 1.466 5.543 3.2 9.321 64.634 9.987 76.917a.836.836 0 0 1-.683.867l-60.52 11.266.033-.016ZM134.223 92.7l-14.78 88 58.656-10.917c-1.665-28.15-5.493-72.733-9.138-74.833-.616-.367-1.398-.917-2.314-1.55-3.645-2.55-9.77-6.85-16.645-6.883-6.408 0-14.214 5.15-15.779 6.183Z"/>
  <path fill="url(#d)" d="M143.711 86.033c-.899.584 1.664 13.617 1.88 14.784 1.365 11 3.229 22.166 4.211 33.133.949 10.55-3.179 21.8-5.193 32.15a160.294 160.294 0 0 1-10.819 34.467c-1.814 4.083-3.994 8.333-7.773 10.65a21.118 21.118 0 0 1-9.587 2.583 82.889 82.889 0 0 1-17.011-.317 15.772 15.772 0 0 1-6.209-1.816c-3.861-2.35-5.26-7.484-4.527-11.95 1.165-6.984 5.726-13.667 7.79-20.567a154.846 154.846 0 0 0 4.594-22.183c2.213-15.267 2.946-30.684 4.993-45.967 9.521-18.984 21.039-18.017 37.651-24.967Z"/>
  <path fill="url(#e)" d="M181.211 92.017c.366.083 6.209 22.333 6.325 23.85 1.465 17.2-5.626 32.266 3.129 48.6 3.329 6.183 7.574 11.833 10.903 18.016.461.686.673 1.51.599 2.334a3.674 3.674 0 0 1-1.981 2.116c-6.874 4.15-15.08 8.134-22.604 5.317a18.554 18.554 0 0 1-6.169-4.317 18.599 18.599 0 0 1-3.951-6.416 49.273 49.273 0 0 1-2.846-14.85c-1.781-22.567.35-44.867-1.847-67.317 0-.583-1.665-13.633-1.931-13.667a122.097 122.097 0 0 0 20.373 6.334Z"/>
  <path fill="#231F20" d="m157.076 95.417-4.594 4.483 3.729 2.567s-3.928 29.233-17.727 33.333c-13.798 4.1-19.141 2.733-19.141 2.733l-7.607 9.867s11.818 3.333 12.667 3.667c.849.333 25.899-5.567 29.844-21.117a161.708 161.708 0 0 0 4.61-27.95l2.497-3.133-4.278-4.45Z"/>
  <path fill="#231F20" d="M140.864 131.267a.817.817 0 0 1-.665-.35l-11.652-15.867a.834.834 0 0 1 0-1.083l6.991-7.217-8.722-2.267a.847.847 0 0 1-.582-.583.835.835 0 0 1 .199-.8l10.736-11.433a.844.844 0 0 1 .584-.262.837.837 0 0 1 .631 1.412l-9.72 10.416 8.738 2.284a.877.877 0 0 1 .599.583.832.832 0 0 1-.216.8l-7.473 7.75L141.48 130a.848.848 0 0 1-.183 1.167.787.787 0 0 1-.433.1ZM108.673 186.767a.835.835 0 0 1-.765-.5.868.868 0 0 1 .449-1.1c6.924-2.85 19.491-8.434 19.624-8.484a.836.836 0 0 1 .914.165.834.834 0 0 1 .196.901.81.81 0 0 1-.444.451c-.116 0-12.716 5.65-19.657 8.517a.973.973 0 0 1-.317.05ZM171.441 126.2a.848.848 0 0 1-.333 0 .85.85 0 0 1-.416-1.117l7.174-15.95-9.055-4.733a.876.876 0 0 1-.416-.517.785.785 0 0 1 .1-.666l5.542-8.85-7.357-1.467a.82.82 0 0 1-.649-.967.852.852 0 0 1 .982-.666l8.539 1.666a.863.863 0 0 1 .599.5.826.826 0 0 1 0 .767l-5.775 9.133 8.954 4.684a.848.848 0 0 1 .367 1.083l-7.491 16.667a.811.811 0 0 1-.765.433Z"/>
  <path fill="#fff" d="M146.174 79.083a25.768 25.768 0 0 1-24.085-4.466 16.255 16.255 0 0 0 5.742-6.284 8.047 8.047 0 0 1-8.905 0 17.068 17.068 0 0 1-5.992-7.183c6.209-.867 11.169-5.617 14.981-10.65 3.811-5.033 6.891-10.667 11.651-14.683a25.845 25.845 0 0 1 28.546-2.484c2.047 1.167 5.626 3.334 6.424 5.75.683 2.084-.665 3.45-.599 5.5.1 2.7 1.415 4.05.733 6.984a24.877 24.877 0 0 1-3.962 8.016 65.94 65.94 0 0 1-6.658 7.617 42.455 42.455 0 0 1-17.876 11.883Z"/>
  <path fill="#231F20" d="M138.251 81.15a27.425 27.425 0 0 1-16.645-5.867.83.83 0 0 1-.333-.7.775.775 0 0 1 .383-.666 15.395 15.395 0 0 0 4.012-3.684 9.63 9.63 0 0 1-7.158-1.216 17.602 17.602 0 0 1-6.308-7.534.803.803 0 0 1 0-.75.816.816 0 0 1 .616-.45c4.993-.683 9.704-4.066 14.381-10.316 1.015-1.35 1.981-2.75 2.946-4.15a50.868 50.868 0 0 1 8.905-10.667 26.817 26.817 0 0 1 29.511-2.617c2.497 1.434 5.942 3.634 6.791 6.217a5.706 5.706 0 0 1-.183 3.7 6.08 6.08 0 0 0-.366 2.033c.043.873.199 1.736.466 2.567a8.532 8.532 0 0 1 .25 4.633A25.947 25.947 0 0 1 171.441 60a47.68 47.68 0 0 1-5.227 6.1l-1.548 1.667a43.017 43.017 0 0 1-18.309 12.183 27.346 27.346 0 0 1-8.106 1.2Zm-14.714-6.517a24.683 24.683 0 0 0 22.387 3.7 41.454 41.454 0 0 0 17.527-11.666L165.016 65a46.616 46.616 0 0 0 4.993-5.883 24.114 24.114 0 0 0 3.845-7.75 6.893 6.893 0 0 0-.249-3.817 12.335 12.335 0 0 1-.516-2.933c0-.88.147-1.752.432-2.584a4.035 4.035 0 0 0 .2-2.683c-.499-1.517-2.53-3.333-6.042-5.3a25.07 25.07 0 0 0-27.614 2.45 49.98 49.98 0 0 0-8.605 10.333c-.982 1.417-1.964 2.834-2.979 4.2-4.611 6.15-9.305 9.7-14.331 10.767a14.89 14.89 0 0 0 5.159 5.867 7.235 7.235 0 0 0 7.973 0 .833.833 0 0 1 1.249 1.05 17.06 17.06 0 0 1-4.994 5.916Z"/>
  <path fill="#fff" d="M173.388 60.983s4.694 8.85 3.329 10.45c-1.365 1.6-4.993.117-4.993.117"/>
  <path fill="#231F20" d="M174.77 73.016a9.49 9.49 0 0 1-3.329-.7.832.832 0 0 1-.379-1.054.833.833 0 0 1 1.011-.479c1.016.4 3.329.983 4.012.133.432-.766-1.199-5.216-3.479-9.533a.833.833 0 0 1 .646-1.228.831.831 0 0 1 .819.445c1.847 3.483 4.743 9.583 3.329 11.366a3.22 3.22 0 0 1-2.63 1.05Z"/>
  <path fill="#fff" d="M173.438 42.517c3.212 3.2 1.448 16.5 1.049 20.416a343.442 343.442 0 0 1-2.098 16.517c-.516 3.483-9.57 2.683-11.068 1.483l.083 13.967s-4.444.766-11.435-3.334c-6.991-4.1-6.824-5.8-6.824-5.8l2.13-15.9s5.976.617 10.187-6.183c4.211-6.8 5.126-17.767 5.126-17.767s9.704-6.516 12.85-3.4Z"/>
  <path fill="#231F20" d="M160.422 95.783a21.914 21.914 0 0 1-10.869-3.483c-6.658-3.917-7.324-5.917-7.291-6.584l2.131-15.966a.85.85 0 0 1 .915-.717c.217 0 5.526.45 9.405-5.783 4.061-6.55 4.993-17.3 4.993-17.4a.945.945 0 0 1 .366-.633c1.065-.7 10.42-6.784 13.949-3.334 2.862 2.85 2.33 11.667 1.414 20l-.116 1.05a385.557 385.557 0 0 1-2.097 16.55 3.332 3.332 0 0 1-2.381 2.567 15.725 15.725 0 0 1-8.688 0l.083 12.683a.818.818 0 0 1-.682.834 6.652 6.652 0 0 1-1.132.216Zm-16.479-10c.117.3 1.016 1.95 6.459 5.133a20.552 20.552 0 0 0 10.17 3.334l-.084-13.183a.841.841 0 0 1 .466-.75.852.852 0 0 1 .883.1 13.297 13.297 0 0 0 8.405.3c.799-.317 1.249-.734 1.332-1.267a359.61 359.61 0 0 0 2.08-16.467l.117-1.066c.483-4.367 1.764-16-.932-18.667-1.864-1.867-7.907.95-11.502 3.333-.216 2.084-1.348 11.5-5.21 17.734a12.599 12.599 0 0 1-10.17 6.566l-2.014 14.9Z"/>
  <path fill="#fff" d="M172.656 75.317a6.503 6.503 0 0 1-6.974-4.834"/>
  <path fill="#231F20" d="M172.09 76.183a7.386 7.386 0 0 1-7.191-5.433.85.85 0 0 1 .516-1.067.834.834 0 0 1 1.049.517 5.671 5.671 0 0 0 6.075 4.283.83.83 0 0 1 .932.717.816.816 0 0 1-.682.933 4.68 4.68 0 0 1-.699.05Z"/>
  <path fill="#fff" d="M162.469 63.517a7.384 7.384 0 0 0-1.182-3.95 11.187 11.187 0 0 0-1.747-2.7 3.666 3.666 0 0 0-2.896-1.184 3.323 3.323 0 0 0-2.331 1.5 6.553 6.553 0 0 0-.948 2.684 11.88 11.88 0 0 0 4.46 11.016l-.283-.35"/>
  <path fill="#231F20" d="M157.825 71.667a.8.8 0 0 1-.499-.184 12.796 12.796 0 0 1-3.962-5.27 12.82 12.82 0 0 1-.815-6.546 7.174 7.174 0 0 1 1.082-3 4.2 4.2 0 0 1 2.929-1.867 4.407 4.407 0 0 1 3.562 1.433 11.936 11.936 0 0 1 1.914 2.9 8.337 8.337 0 0 1 1.265 4.4.84.84 0 0 1-.583.724.833.833 0 0 1-1.081-.874 6.672 6.672 0 0 0-1.082-3.483 10.113 10.113 0 0 0-1.665-2.483 2.758 2.758 0 0 0-2.197-.95 2.482 2.482 0 0 0-1.664 1.15 5.411 5.411 0 0 0-.816 2.316 11.084 11.084 0 0 0 3.512 9.733c.2.04.379.153.5.317l.283.35a.838.838 0 0 1-.358 1.282.782.782 0 0 1-.325.052ZM161.321 80.933a14.782 14.782 0 0 1-6.425-5.333s-.5 8.433 6.458 11.55l-.033-6.217Z"/>
  <path fill="#231F20" d="M161.354 87.983a.749.749 0 0 1-.333 0c-7.407-3.333-6.991-12-6.958-12.366a.836.836 0 0 1 1.158-.711c.163.07.3.19.39.344a14.1 14.1 0 0 0 6.026 5 .834.834 0 0 1 .516.767v6.216a.802.802 0 0 1-.383.7.829.829 0 0 1-.416.05Zm-5.443-9.65a10.599 10.599 0 0 0 4.611 7.484v-4.3a17.84 17.84 0 0 1-4.611-3.184ZM171.37 57.065c.285-1.058.177-2.006-.24-2.119-.417-.113-.986.654-1.27 1.711-.285 1.058-.178 2.007.24 2.12.417.112.986-.654 1.27-1.712Z"/>
  <path fill="#231F20" d="M172.423 56.3a.913.913 0 0 1-.416-.117l-3.679-2.15a.827.827 0 0 1-.45-.505.836.836 0 0 1 .967-1.069.826.826 0 0 1 .315.141l3.679 2.133a.85.85 0 0 1 .299 1.15.824.824 0 0 1-.715.417ZM93.543 166.283a.751.751 0 0 1-.549-.216.826.826 0 0 1-.287-.566.816.816 0 0 1 .204-.601l27.447-31.05a.814.814 0 0 1 1.165 0 .85.85 0 0 1 0 1.183L94.159 166a.853.853 0 0 1-.616.283Z"/>
  <path fill="#fff" d="M391.234 114.133C349.539 100 353.201 56.783 353.251 56.35l.35-3.7h25.416v8.167h-17.743c.166 9.716 3.412 35.65 32.59 45.566l-2.63 7.75Z"/>
  <path fill="#231F20" d="M391.234 115a.662.662 0 0 1-.266 0c-42.344-14.5-38.599-58.333-38.549-58.733l.349-3.7a.835.835 0 0 1 .833-.75h25.416a.832.832 0 0 1 .832.833v8.167a.833.833 0 0 1-.832.833h-16.894c.349 10.717 4.361 34.55 32.008 43.95a.85.85 0 0 1 .482.417.967.967 0 0 1 0 .65l-2.63 7.733a.813.813 0 0 1-.749.6ZM354.35 53.483l-.283 2.95c0 .417-3.529 42.417 36.618 56.667l2.081-6.167c-28.629-10.266-32.158-35.583-32.324-46.1a.9.9 0 0 1 .233-.6.88.88 0 0 1 .599-.25h16.911v-6.5H354.35Z"/>
  <path fill="#fff" d="m449.408 114.133-2.63-7.75c29.161-10 32.424-35.833 32.59-45.566h-17.726V52.65h25.416l.35 3.7c.05.433 3.612 43.65-38 57.783Z"/>
  <path fill="#231F20" d="M449.408 115a.902.902 0 0 1-.366 0 .847.847 0 0 1-.416-.483l-2.547-7.85a.832.832 0 0 1 .516-1.05c27.63-9.4 31.625-33.234 32.008-43.95h-16.961a.832.832 0 0 1-.832-.834v-8.166a.834.834 0 0 1 .832-.834h25.416a.848.848 0 0 1 .832.75l.35 3.7c0 .45 3.645 44.3-38.549 58.65a.748.748 0 0 1-.283.067Zm-1.581-8.067 2.097 6.167c40.097-14.2 36.618-56.217 36.618-56.667l-.266-2.933h-23.802V60h16.894a.917.917 0 0 1 .6.25.91.91 0 0 1 .233.6c-.167 10.5-3.679 35.817-32.358 46.05l-.016.033Z"/>
  <path fill="#fff" d="m463.489 45-86.303-.767s-.765 37.084 8.672 60.6c7.857 19.567 17.361 27.267 25.433 30.4a23.016 23.016 0 0 1 1.665 9.617 48.384 48.384 0 0 1-4.594 16.3h23.935s-4.993-8.233-4.794-16.1c.13-3.306.627-6.587 1.482-9.783 9.138-4.4 20.523-15.584 26.631-31.667 8.123-21.8 7.873-58.6 7.873-58.6Z"/>
  <path fill="#231F20" d="M432.297 161.95h-23.935a.87.87 0 0 1-.716-.383.838.838 0 0 1 0-.817 47.53 47.53 0 0 0 4.511-15.967 21.704 21.704 0 0 0-1.481-8.933c-10.453-4.217-19.059-14.55-25.55-30.733-9.404-23.334-8.755-60.55-8.739-60.934a.819.819 0 0 1 .833-.816l86.319.766a.846.846 0 0 1 .816.834c0 .366.166 37.233-7.973 58.85-6.392 17.033-18.309 27.816-26.632 32a41.846 41.846 0 0 0-1.364 9.216c-.184 7.534 4.627 15.584 4.677 15.667a.823.823 0 0 1 .016.84.81.81 0 0 1-.732.41h-.05Zm-22.637-1.667h21.222c-1.398-2.65-4.361-9.016-4.211-15.283.124-3.38.632-6.735 1.515-10a.79.79 0 0 1 .433-.533c8.122-3.917 19.857-14.45 26.182-31.25 7.34-19.55 7.823-51.884 7.856-57.434L378.002 45c0 5.583.133 38.333 8.639 59.45 6.374 15.9 14.78 25.983 24.967 30a.852.852 0 0 1 .466.467 23.357 23.357 0 0 1 1.664 10 46.602 46.602 0 0 1-4.078 15.366Z"/>
  <path fill="#fff" d="M391.451 160.35h57.757c1.051 0 2.058.418 2.801 1.162a3.97 3.97 0 0 1 1.16 2.805v14.416h-65.68v-14.416a3.97 3.97 0 0 1 1.161-2.805 3.956 3.956 0 0 1 2.801-1.162Z"/>
  <path fill="#231F20" d="M453.17 179.583h-65.681a.833.833 0 0 1-.832-.833v-14.433a4.825 4.825 0 0 1 1.409-3.39 4.806 4.806 0 0 1 3.385-1.41h57.757a4.806 4.806 0 0 1 3.385 1.41 4.825 4.825 0 0 1 1.409 3.39v14.433a.833.833 0 0 1-.832.833Zm-64.915-1.666h64.016v-13.6c0-.831-.33-1.628-.917-2.216a3.124 3.124 0 0 0-2.212-.918h-57.758c-.83 0-1.625.33-2.212.918a3.137 3.137 0 0 0-.917 2.216v13.6Z"/>
  <path fill="#fff" d="M459.728 177.717h-78.797a3.214 3.214 0 0 0-3.212 3.216v2.484a3.214 3.214 0 0 0 3.212 3.216h78.797a3.214 3.214 0 0 0 3.212-3.216v-2.484a3.214 3.214 0 0 0-3.212-3.216Z"/>
  <path fill="#231F20" d="M459.728 187.467h-78.797a4.05 4.05 0 0 1-2.865-1.192 4.05 4.05 0 0 1-1.179-2.875v-2.467a4.052 4.052 0 0 1 4.044-4.05h78.797a4.052 4.052 0 0 1 4.044 4.05v2.4a4.058 4.058 0 0 1-2.477 3.818 4.054 4.054 0 0 1-1.567.316Zm-78.797-8.917a2.38 2.38 0 0 0-2.38 2.383v2.4a2.399 2.399 0 0 0 2.38 2.4h78.797a2.399 2.399 0 0 0 2.38-2.4v-2.466a2.38 2.38 0 0 0-2.38-2.384l-78.797.067Z"/>
  <path fill="#231F20" d="M111.903 359.083H1.881a.833.833 0 0 1 0-1.666H111.07v-29.084a.833.833 0 0 1 .833-.833h73.403v-37.883a.833.833 0 0 1 .832-.834h82.908v-58.6a.832.832 0 0 1 .832-.833h69.192v-42.683a.831.831 0 0 1 .832-.834h164.217a.833.833 0 0 1 0 1.667H340.734v42.717a.832.832 0 0 1-.832.833H270.71v58.6a.833.833 0 0 1-.832.833H186.97v37.85a.851.851 0 0 1-.832.834h-73.403v29.166a.832.832 0 0 1-.832.75ZM184.424 148.333h-.184a.848.848 0 0 1-.632-1c0-.266 5.992-26.366 2.064-42.816a.854.854 0 1 1 1.664-.384c4.012 16.834-1.797 42.484-2.047 43.567a.845.845 0 0 1-.865.633ZM256.029 137.733a.832.832 0 0 1-.366-1.566 4.221 4.221 0 0 0 1.864-3.334 5.014 5.014 0 0 1 0-2.816.832.832 0 0 1 .866-.567.87.87 0 0 1 .749.733 13.55 13.55 0 0 1 0 2.417l.116.183a2.439 2.439 0 0 0 2.064.784.82.82 0 0 0 .816-.334c.849-1.266-.416-5.533-1.665-8.133a.839.839 0 1 1 1.532-.683c.532 1.183 3.095 7.25 1.464 9.733a2.505 2.505 0 0 1-2.247 1.083 4.869 4.869 0 0 1-2.513-.65 5.003 5.003 0 0 1-2.447 3.15.759.759 0 0 1-.233 0Z"/>
  <path fill="#164ED0" d="m420.329 58.183 8.173 16.6 18.292 2.65-13.232 12.917 3.129 18.25-16.362-8.617-16.361 8.617 3.129-18.25-13.233-12.917 18.293-2.65 8.172-16.6Z"/>
  <path fill="#fff" d="M482.464 176.133h-34.92c-.855 0-1.548.694-1.548 1.55v6.167c0 .856.693 1.55 1.548 1.55h34.92c.855 0 1.548-.694 1.548-1.55v-6.167c0-.856-.693-1.55-1.548-1.55Z"/>
  <path fill="#231F20" d="M482.464 186.233H447.51a2.38 2.38 0 0 1-2.38-2.383v-6.183a2.38 2.38 0 0 1 2.38-2.367h34.954a2.385 2.385 0 0 1 2.38 2.367v6.183a2.382 2.382 0 0 1-2.38 2.383Zm-34.954-9.266a.682.682 0 0 0-.505.199.702.702 0 0 0-.21.501v6.183a.716.716 0 0 0 .715.717h34.954a.717.717 0 0 0 .716-.717v-6.183a.703.703 0 0 0-.716-.7H447.51Z"/>
  <path fill="#D1D3D4" d="M449.791 184.55a.833.833 0 0 1-.833-.833v-5.884a.833.833 0 0 1 1.665 0v5.884a.833.833 0 0 1-.832.833ZM454.135 184.55a.831.831 0 0 1-.832-.833v-5.884a.83.83 0 0 1 .832-.833.831.831 0 0 1 .832.833v5.884a.83.83 0 0 1-.832.833ZM458.479 184.55a.831.831 0 0 1-.832-.833v-5.884a.833.833 0 0 1 1.421-.589.832.832 0 0 1 .243.589v5.884a.832.832 0 0 1-.832.833ZM462.823 184.55a.833.833 0 0 1-.832-.833v-5.884a.833.833 0 0 1 1.665 0v5.884a.833.833 0 0 1-.833.833ZM467.168 184.55a.833.833 0 0 1-.833-.833v-5.884a.833.833 0 0 1 1.665 0v5.884a.833.833 0 0 1-.832.833ZM471.529 184.55a.833.833 0 0 1-.833-.833v-5.884a.833.833 0 0 1 1.665 0v5.884a.833.833 0 0 1-.832.833ZM475.873 184.55a.833.833 0 0 1-.832-.833v-5.884a.832.832 0 1 1 1.664 0v5.884a.833.833 0 0 1-.832.833ZM480.217 184.55a.833.833 0 0 1-.832-.833v-5.884a.833.833 0 0 1 1.421-.589.832.832 0 0 1 .243.589v5.884a.832.832 0 0 1-.832.833Z"/>
  <path fill="#fff" d="M475.407 166.85h-34.921c-.855 0-1.548.694-1.548 1.55v6.167c0 .856.693 1.55 1.548 1.55h34.921c.855 0 1.548-.694 1.548-1.55V168.4c0-.856-.693-1.55-1.548-1.55Z"/>
  <path fill="#231F20" d="M475.407 176.967h-34.954a2.397 2.397 0 0 1-2.38-2.384v-6.25a2.378 2.378 0 0 1 .697-1.685 2.386 2.386 0 0 1 1.683-.698h34.954a2.386 2.386 0 0 1 2.38 2.383v6.184a2.404 2.404 0 0 1-.678 1.723 2.391 2.391 0 0 1-1.702.727Zm-34.954-9.284a.717.717 0 0 0-.716.717v6.183a.722.722 0 0 0 .442.662c.087.036.18.055.274.055h34.954a.716.716 0 0 0 .716-.717v-6.25a.717.717 0 0 0-.716-.716l-34.954.066Z"/>
  <path fill="#D1D3D4" d="M442.75 175.283a.835.835 0 0 1-.832-.833v-5.9a.832.832 0 1 1 1.664 0v5.9a.83.83 0 0 1-.832.833ZM447.078 175.283a.833.833 0 0 1-.833-.833v-5.9a.847.847 0 0 1 .833-.833.833.833 0 0 1 .832.833v5.9a.833.833 0 0 1-.832.833ZM451.422 175.283a.833.833 0 0 1-.832-.833v-5.9a.851.851 0 0 1 .832-.833.833.833 0 0 1 .832.833v5.9a.833.833 0 0 1-.832.833ZM455.766 175.283a.831.831 0 0 1-.832-.833v-5.9a.851.851 0 0 1 .832-.833.83.83 0 0 1 .832.833v5.9a.832.832 0 0 1-.832.833ZM460.11 175.283a.833.833 0 0 1-.832-.833v-5.9a.848.848 0 0 1 .832-.833.83.83 0 0 1 .833.833v5.9a.833.833 0 0 1-.833.833ZM464.388 175.283a.831.831 0 0 1-.832-.833v-5.9a.851.851 0 0 1 .832-.833.83.83 0 0 1 .832.833v5.9a.832.832 0 0 1-.832.833ZM468.799 175.283a.833.833 0 0 1-.832-.833v-5.9a.851.851 0 0 1 .832-.833.833.833 0 0 1 .832.833v5.9a.833.833 0 0 1-.832.833ZM473.143 175.283a.833.833 0 0 1-.832-.833v-5.9a.851.851 0 0 1 .832-.833.83.83 0 0 1 .833.833v5.9a.833.833 0 0 1-.833.833Z"/>
  <path fill="#fff" d="M477.038 157.583h-34.921c-.855 0-1.548.694-1.548 1.55v6.167c0 .856.693 1.55 1.548 1.55h34.921c.855 0 1.548-.694 1.548-1.55v-6.167c0-.856-.693-1.55-1.548-1.55Z"/>
  <path fill="#231F20" d="M477.038 167.683h-34.954a2.385 2.385 0 0 1-2.364-2.366v-6.184a2.383 2.383 0 0 1 2.364-2.383h34.954a2.378 2.378 0 0 1 2.38 2.383v6.184a2.381 2.381 0 0 1-2.38 2.366Zm-34.954-9.266a.717.717 0 0 0-.699.716v6.184a.704.704 0 0 0 .699.7h34.954a.717.717 0 0 0 .716-.7v-6.184a.737.737 0 0 0-.716-.716h-34.954Z"/>
  <path fill="#D1D3D4" d="M444.414 166.017a.833.833 0 0 1-.832-.834v-5.9a.833.833 0 0 1 1.665 0v5.9a.833.833 0 0 1-.833.834ZM448.709 166.017a.833.833 0 0 1-.833-.834v-5.9a.833.833 0 0 1 1.665 0v5.9a.833.833 0 0 1-.832.834ZM453.053 166.017a.851.851 0 0 1-.832-.834v-5.9a.849.849 0 0 1 .832-.833.831.831 0 0 1 .832.833v5.9a.831.831 0 0 1-.832.834ZM457.397 166.017a.851.851 0 0 1-.832-.834v-5.9a.849.849 0 0 1 .832-.833.833.833 0 0 1 .832.833v5.9a.833.833 0 0 1-.832.834ZM461.741 166.017a.852.852 0 0 1-.832-.834v-5.9a.846.846 0 0 1 .249-.584.843.843 0 0 1 .583-.249.833.833 0 0 1 .833.833v5.9a.833.833 0 0 1-.833.834ZM466.052 166.017a.852.852 0 0 1-.832-.834v-5.9a.85.85 0 0 1 .832-.833.833.833 0 0 1 .833.833v5.9a.833.833 0 0 1-.833.834ZM470.43 166.017a.851.851 0 0 1-.832-.834v-5.9a.849.849 0 0 1 .832-.833.833.833 0 0 1 .832.833v5.9a.833.833 0 0 1-.832.834ZM474.774 166.017a.852.852 0 0 1-.832-.834v-5.9a.846.846 0 0 1 .249-.584.843.843 0 0 1 .583-.249.833.833 0 0 1 .833.833v5.9a.833.833 0 0 1-.833.834Z"/>
  <path fill="#fff" d="M471.595 148.317h-34.92c-.855 0-1.548.694-1.548 1.55v6.166c0 .856.693 1.55 1.548 1.55h34.92c.855 0 1.548-.694 1.548-1.55v-6.166c0-.856-.693-1.55-1.548-1.55Z"/>
  <path fill="#231F20" d="M471.612 158.417h-34.954a2.378 2.378 0 0 1-2.38-2.384v-6.166a2.382 2.382 0 0 1 2.38-2.384h34.954a2.384 2.384 0 0 1 2.364 2.384v6.166a2.386 2.386 0 0 1-2.364 2.384Zm-34.954-9.267a.716.716 0 0 0-.716.717v6.166a.718.718 0 0 0 .716.717h34.954a.702.702 0 0 0 .699-.717v-6.166a.705.705 0 0 0-.199-.506.69.69 0 0 0-.5-.211h-34.954Z"/>
  <path fill="#D1D3D4" d="M438.938 156.75a.831.831 0 0 1-.832-.833V150a.833.833 0 0 1 .832-.833.847.847 0 0 1 .832.833v5.9a.852.852 0 0 1-.832.85ZM443.282 156.75a.833.833 0 0 1-.832-.833V150a.833.833 0 0 1 .832-.833.853.853 0 0 1 .833.833v5.9a.848.848 0 0 1-.833.85ZM447.627 156.75a.833.833 0 0 1-.833-.833V150a.833.833 0 0 1 .833-.833.843.843 0 0 1 .583.249.844.844 0 0 1 .249.584v5.9a.848.848 0 0 1-.832.85ZM451.971 156.75a.831.831 0 0 1-.832-.833V150a.833.833 0 0 1 .832-.833.847.847 0 0 1 .832.833v5.9a.852.852 0 0 1-.832.85ZM456.315 156.75a.833.833 0 0 1-.832-.833V150a.833.833 0 0 1 .832-.833.853.853 0 0 1 .833.833v5.9a.848.848 0 0 1-.833.85ZM460.66 156.75a.833.833 0 0 1-.833-.833V150a.833.833 0 0 1 1.665 0v5.9a.835.835 0 0 1-.832.85ZM465.004 156.75a.833.833 0 0 1-.832-.833V150a.832.832 0 1 1 1.664 0v5.9a.829.829 0 0 1-.51.785.827.827 0 0 1-.322.065ZM469.382 156.75a.833.833 0 0 1-.833-.833V150a.833.833 0 0 1 1.665 0v5.9a.835.835 0 0 1-.832.85Z"/>
  <path fill="#fff" d="M477.038 139.05h-34.921c-.855 0-1.548.694-1.548 1.55v6.167c0 .856.693 1.55 1.548 1.55h34.921c.855 0 1.548-.694 1.548-1.55V140.6c0-.856-.693-1.55-1.548-1.55Z"/>
  <path fill="#231F20" d="M477.038 149.15h-34.954a2.384 2.384 0 0 1-2.364-2.383V140.6a2.378 2.378 0 0 1 2.364-2.383h34.954a2.378 2.378 0 0 1 2.38 2.383v6.167a2.378 2.378 0 0 1-2.38 2.383Zm-34.954-9.267a.702.702 0 0 0-.699.717v6.167a.7.7 0 0 0 .699.716h34.954a.716.716 0 0 0 .716-.716V140.6a.72.72 0 0 0-.716-.717h-34.954Z"/>
  <path fill="#D1D3D4" d="M444.414 147.483a.833.833 0 0 1-.832-.833v-5.9a.833.833 0 0 1 1.665 0v5.917a.835.835 0 0 1-.833.816ZM448.709 147.483a.833.833 0 0 1-.833-.833v-5.9a.833.833 0 0 1 1.665 0v5.917a.83.83 0 0 1-.832.816ZM453.053 147.483a.846.846 0 0 1-.832-.833v-5.9a.851.851 0 0 1 .832-.833.833.833 0 0 1 .832.833v5.917a.834.834 0 0 1-.832.816ZM457.397 147.483a.847.847 0 0 1-.832-.833v-5.9a.851.851 0 0 1 .832-.833.83.83 0 0 1 .832.833v5.917a.834.834 0 0 1-.832.816ZM461.741 147.483a.843.843 0 0 1-.583-.249.844.844 0 0 1-.249-.584v-5.9a.848.848 0 0 1 .832-.833.83.83 0 0 1 .833.833v5.917a.835.835 0 0 1-.833.816ZM466.052 147.483a.848.848 0 0 1-.832-.833v-5.9a.852.852 0 0 1 .832-.833.83.83 0 0 1 .833.833v5.917a.835.835 0 0 1-.833.816ZM470.43 147.483a.847.847 0 0 1-.832-.833v-5.9a.851.851 0 0 1 .832-.833.83.83 0 0 1 .832.833v5.917a.834.834 0 0 1-.832.816ZM474.774 147.483a.843.843 0 0 1-.583-.249.844.844 0 0 1-.249-.584v-5.9a.848.848 0 0 1 .832-.833.83.83 0 0 1 .833.833v5.917a.835.835 0 0 1-.833.816Z"/>
  <path fill="#fff" d="M355.365 185.383h34.921c.855 0 1.548-.694 1.548-1.55v-6.166c0-.856-.693-1.55-1.548-1.55h-34.921c-.855 0-1.548.694-1.548 1.55v6.166c0 .856.693 1.55 1.548 1.55Z"/>
  <path fill="#231F20" d="M390.286 186.233h-34.954a2.383 2.383 0 0 1-2.381-2.383v-6.183a2.381 2.381 0 0 1 2.381-2.367h34.954a2.38 2.38 0 0 1 2.38 2.367v6.183a2.393 2.393 0 0 1-2.38 2.383Zm-34.954-9.266a.717.717 0 0 0-.716.7v6.183a.732.732 0 0 0 .716.717h34.954a.733.733 0 0 0 .715-.717v-6.183a.715.715 0 0 0-.715-.7h-34.954Z"/>
  <path fill="#D1D3D4" d="M388.022 184.55a.835.835 0 0 1-.832-.833v-5.884a.832.832 0 1 1 1.664 0v5.884a.833.833 0 0 1-.832.833ZM383.678 184.55a.833.833 0 0 1-.833-.833v-5.884a.833.833 0 0 1 1.665 0v5.884a.833.833 0 0 1-.832.833ZM379.333 184.55a.833.833 0 0 1-.832-.833v-5.884a.833.833 0 0 1 1.665 0v5.884a.833.833 0 0 1-.833.833ZM374.989 184.55a.831.831 0 0 1-.832-.833v-5.884a.833.833 0 0 1 1.421-.589.832.832 0 0 1 .243.589v5.884a.832.832 0 0 1-.832.833ZM370.645 184.55a.831.831 0 0 1-.832-.833v-5.884a.83.83 0 0 1 .832-.833.831.831 0 0 1 .832.833v5.884a.83.83 0 0 1-.832.833ZM366.3 184.55a.833.833 0 0 1-.832-.833v-5.884a.833.833 0 0 1 1.665 0v5.884a.833.833 0 0 1-.833.833ZM361.956 184.55a.833.833 0 0 1-.832-.833v-5.884a.833.833 0 0 1 1.421-.589.832.832 0 0 1 .243.589v5.884a.832.832 0 0 1-.832.833ZM357.612 184.55a.831.831 0 0 1-.832-.833v-5.884a.83.83 0 0 1 .832-.833.831.831 0 0 1 .832.833v5.884a.83.83 0 0 1-.832.833Z"/>
  <path fill="#fff" d="M362.406 176.133h34.921a1.55 1.55 0 0 0 1.548-1.55v-6.166a1.55 1.55 0 0 0-1.548-1.55h-34.921c-.855 0-1.548.694-1.548 1.55v6.166c0 .856.693 1.55 1.548 1.55Z"/>
  <path fill="#231F20" d="M397.343 176.967h-34.954a2.382 2.382 0 0 1-2.364-2.384v-6.25a2.383 2.383 0 0 1 2.364-2.383h34.954a2.386 2.386 0 0 1 2.38 2.383v6.184a2.404 2.404 0 0 1-.678 1.723 2.391 2.391 0 0 1-1.702.727Zm-34.954-9.284a.716.716 0 0 0-.699.717v6.183a.717.717 0 0 0 .699.717h34.954a.716.716 0 0 0 .716-.717v-6.25a.717.717 0 0 0-.716-.716l-34.954.066Z"/>
  <path fill="#D1D3D4" d="M395.079 175.283a.833.833 0 0 1-.832-.833v-5.9a.848.848 0 0 1 .832-.833.83.83 0 0 1 .833.833v5.9a.833.833 0 0 1-.833.833ZM390.735 175.283a.831.831 0 0 1-.832-.833v-5.9a.851.851 0 0 1 .832-.833.83.83 0 0 1 .832.833v5.9a.832.832 0 0 1-.832.833ZM386.391 175.283a.833.833 0 0 1-.832-.833v-5.9a.851.851 0 0 1 .832-.833.833.833 0 0 1 .832.833v5.9a.833.833 0 0 1-.832.833ZM382.047 175.283a.833.833 0 0 1-.833-.833v-5.9a.833.833 0 0 1 1.665 0v5.9a.833.833 0 0 1-.832.833ZM377.702 175.283a.833.833 0 0 1-.832-.833v-5.9a.833.833 0 0 1 1.665 0v5.9a.833.833 0 0 1-.833.833ZM373.358 175.283a.833.833 0 0 1-.832-.833v-5.9a.832.832 0 1 1 1.664 0v5.9a.833.833 0 0 1-.832.833ZM369.014 175.283a.833.833 0 0 1-.833-.833v-5.9a.833.833 0 0 1 1.665 0v5.9a.833.833 0 0 1-.832.833ZM364.669 175.283a.833.833 0 0 1-.832-.833v-5.9a.833.833 0 0 1 1.665 0v5.9a.833.833 0 0 1-.833.833Z"/>
  <defs>
    <linearGradient id="a" x1="410.288" x2="436.201" y1="21.347" y2="22.208" gradientUnits="userSpaceOnUse">
      <stop stop-color="#164ED0"/>
      <stop offset="1" stop-color="#F13870"/>
    </linearGradient>
    <linearGradient id="b" x1="181.211" x2="268.957" y1="115.032" y2="118.175" gradientUnits="userSpaceOnUse">
      <stop stop-color="#164ED0"/>
      <stop offset="1" stop-color="#F13870"/>
    </linearGradient>
    <linearGradient id="c" x1="55.427" x2="152.334" y1="128.676" y2="131.815" gradientUnits="userSpaceOnUse">
      <stop stop-color="#164ED0"/>
      <stop offset="1" stop-color="#F13870"/>
    </linearGradient>
    <linearGradient id="d" x1="88.496" x2="166.658" y1="123.212" y2="124.755" gradientUnits="userSpaceOnUse">
      <stop stop-color="#164ED0"/>
      <stop offset="1" stop-color="#F13870"/>
    </linearGradient>
    <linearGradient id="e" x1="160.838" x2="213.435" y1="116.897" y2="117.728" gradientUnits="userSpaceOnUse">
      <stop stop-color="#164ED0"/>
      <stop offset="1" stop-color="#F13870"/>
    </linearGradient>
  </defs>
</svg>
