<svg xmlns="http://www.w3.org/2000/svg" width="114" height="131" fill="none">
  <g clip-path="url(#a)">
    <g filter="url(#b)">
      <path fill="#fff" d="M77 66c-17.098 0-31 13.902-31 31s13.902 31 31 31 31-13.902 31-31-13.902-31-31-31Z"/>
    </g>
    <path fill="#007042" d="M76.988 78.843c1.002.575 2.066 1.315 2.875 2.099l-.318.318c-1.597-.17-3.28.042-4.794.065-.169-.17-.51-.424-.192-.637l2.429-1.845Zm28.245 19.742c.021.717.089 1.333-.192 2.067-2.919.826-4.836-2.248-7.667-1.784l.32 1.593c2.619.086 4.256 2.585 6.962 2.478-.384.764.172 2.777-1.532 1.972-1.768-.423-3.046-1.972-4.984-1.972-.234.427-.086 1.018-.127 1.523 2.044.319 3.514 2.038 5.558 2.355-.192.699-.383 1.481-.958 1.907-1.663-.402-2.961-1.887-4.731-1.845l-.316 1.463c1.683.043 2.769 1.524 4.281 1.968.041.617-.513 1.169-.832 1.72-1.342-.401-2.366-1.548-3.899-1.464-.021-.574.322-1.227.192-1.842-1.722.51-2.877-1.082-4.153-2.037-.037-3.125-3.343-5.175-3.518-8.102a4.328 4.328 0 0 1 .323-1.876c1.087-2.5.746-5.746-.446-8.077-.362-.613-1.004-1.098-1.602-1.458.875 1.844 1.941 4.024 1.41 6.29-.062 1.752-1.1 3.433-1.113 5.12a3.504 3.504 0 0 0 .473 1.812c1.386 2.482 3.878 4.832 2.941 7.946-.258.956-1.025 1.695-1.217 2.669 1.621 1.335 3.154 2.84 5.304 2.925.767-.487.34-2.646 1.917-1.651l2.302 1.146c-.168.613-.684 1.162-1.15 1.584-.874-.423-1.726-.929-2.815-.888-.32.339-.597.719-.573 1.206.766.125 1.47.447 2.11.893-.298.636-.877 1.035-1.41 1.523l-1.785-.635c-.298.424-.917.87-.7 1.336.403.172.85.404 1.147.701-.788.848-1.787 1.393-2.749 1.968-.827-2.692-3.555-4.58-3.321-7.693l-.127-.126c-.641.717-.427 1.864-.385 2.795.767 1.95 2.597 3.456 2.875 5.595-.32.55-1.043.66-1.597.893.064-3.856-5.814-6.78-2.045-10.68 1.258-1.91 3.364-3.732 2.618-6.361-.767-2.539-3.477-4.111-3.453-6.957l.004-.222c.617-2.968 2.493-6.125.959-9.282-.428-1.27-1.383-2.713-2.682-3.244 1.937 2.206 2.705 5.805 1.596 8.773-.558 1.18-1.327 2.588-1.404 3.975h-.005c-.04.725.108 1.446.578 2.129 1.47 2.375 4.025 4.983 2.556 8.077-1.661 2.478-4.558 4.999-2.94 8.263 1.171 1.95 2.983 3.895 2.494 6.291l-1.917.636c1.278-4.47-4.985-7.097-2.363-11.568 1.619-2.395 4.514-4.642 2.875-7.819-.98-1.97-3.004-3.135-2.94-5.596l.07-.413c.66-3.49 3.326-6.793 1.461-10.523-.49-1.1-1.469-2.224-2.556-2.86l-.065.066c2.173 2.097 2.835 5.55 1.663 8.324-.547 1.628-1.747 3.25-1.991 4.994a4.085 4.085 0 0 0 .46 2.573c1.384 2.181 3.811 4.494 2.296 7.314-1.595 2.329-4.258 4.595-3.194 7.623 1.171 2.65 3.618 5.174 2.297 8.46l-1.978.444c1.576-3.202-.787-6.379-2.17-9.156-1.684-3.984 3.616-5.892 3.701-9.534-.02-2.351-2.532-3.686-3.063-5.848-1.087-.912-2.214.363-3.514.127-.96.191-2.434-1.315-3.006.318-.683 2.393-3.79 4.153-2.425 6.991 1.3 2.523 4.428 4.368 3.383 7.632-.935 3.05-4.026 5.953-2.11 9.47-.786-.254-2.257.232-2.236-1.019-1.213-4.259 3.962-6.741 2.364-10.998-.744-2.607-4.133-4.047-3.387-7.183.551-2.582 3.463-4.387 3.055-7.214a4.151 4.151 0 0 0-.176-.732c-1.087-3.052-3.304-6.104-1.982-9.665.363-1.017 1.087-1.886 1.724-2.795-2.109 1.123-3.172 3.497-3.129 5.912-.092 2.626 1.858 4.876 2.136 7.28.109.97-.05 1.963-.731 3.016-1.384 1.868-3.193 3.837-2.363 6.296.788 2.48 3.898 3.983 3.706 6.866-.021 3.41-4.004 5.534-2.875 9.348l-1.983-.64c-.787-3.389 2.834-5.123 2.875-8.259.513-3.606-4.11-4.944-3.833-8.46-.02-2.671 2.343-4.362 3.387-6.609a4.279 4.279 0 0 0 .214-1.558c-.127-2.484-2.377-4.426-2.004-7.219.126-2.055.829-3.857 2.171-5.403-1.852.74-2.617 2.862-3.129 4.642-.888 2.855 1.232 5.422 1.444 7.98.094 1.13-.183 2.252-1.251 3.4-1.534 1.799-3.09 4.069-1.983 6.487 1.173 2.668 4.859 4.744 3.26 8.072-.872 2.098-2.96 3.686-2.874 6.165-.554-.233-1.128-.466-1.598-.888 0-3.157 4.514-5.129 2.363-8.456-.19.657-.231 1.549-.38 2.29-.747 1.929-2.344 3.474-2.941 5.468-1-.384-2.044-1.19-2.875-2.037l1.15-.701c-.127-.425-.467-.785-.765-1.145-.748-.104-1.238.384-1.855.575-.532-.467-1.046-.891-1.47-1.463.382-1.083 3.368-.188 1.855-1.968-1.021-.635-2.047.272-2.94.696l-1.213-1.524c1.044-.635 2.085-1.527 3.383-1.271.32.573.342 1.416.958 1.715 2.194-.042 3.749-1.693 5.431-2.986-1.172-1.736-2.127-4.132-1.085-6.231.834-2.103 3.008-3.874 3.107-6.2a4.115 4.115 0 0 0-.293-1.685c-1.15-2.945-1.556-6.927.639-9.534-1.194.319-1.897 1.798-2.302 2.921-1.32 2.877.349 5.542.407 8.298a5.92 5.92 0 0 1-.154 1.494c-1.13 2.267-2.959 4.256-3.256 6.865-1.3.825-2.367 2.267-4.218 1.781-.066.487.084 1.229.253 1.78-1.468-.061-2.47 1.016-3.706 1.524-.658-.21-.83-1.057-1.085-1.65 1.447-.486 2.491-1.93 4.153-1.907.193-.532-.108-1.02-.193-1.528-2.067-.913-5.343 4.512-5.619-.191 2.066-.128 3.386-2.035 5.431-2.225l.061-1.524c-2.321-.233-3.815 2.141-6.135 1.907l-.512-2.033c2.684.167 4.284-2.226 6.84-2.355.34-.445.38-1.102.446-1.716-2.79-.361-4.705 2.715-7.666 1.781 0 0-.103-1.28-.158-2.002h.004c-.02-.283-.04-.48-.04-.48 2.642 1.02 4.962-.867 7.221-1.841.575-.171 1.471.125 1.729-.51-.023-.487.87-1.057.127-1.398-3.303-.445-5.497 3.518-8.884 1.716l-.254-.51c.705-9.576 6.133-18.835 15.142-23.392 3.649-2.074 8.181-3.131 12.753-3.169 5.516-.046 11.09 1.394 15.237 4.315 4.027 2.457 7.879 6.507 9.97 10.618 1.999 3.603 2.919 7.645 3.194 11.948-3.494 2.626-5.838-2.475-9.396-1.333.192.552.298 1.123.705 1.589 3.153-.022 5.324 3.263 8.625 1.968l.003.479ZM65.099 86.79c-2.215-1.441-5.024-.084-7.089.701-.191-1.93-.979-3.687-2.62-4.958-.16-.08-.38-.245-.579-.257-.118-.008-.231.04-.319.191.744 4.555-2.232 7.734-4.341 11.19.702.57 1.83.485 2.682.317 2.236-.89 4.366-2.438 7.028-1.907.788-1.335 2.11-2.628 3.195-3.688.663-.57 1.573-.932 2.043-1.589Zm6.775 2.86c-.043.275.021.764.446.575.661-.91 1.832-.19 2.556-.126v-.256c-.397-.62-1.214-.932-2.044-.901a3.044 3.044 0 0 0-.573.077c-.278.062-.47.315-.385.632Zm10.415-2.729c-.595-1.314-1.958-1.846-3.195-2.164a16.692 16.692 0 0 0-1.86-.13c-.117-.001-.234-.003-.35 0-1.746.035-3.415.48-4.434 1.91-.146.404-.79.971-.192 1.333 1.342-.086 2.873-.253 3.768.893 0 1.018.66 2.373-.446 2.86-.918-.845-2.004.36-3.002-.319-.47-.275-.766.047-.959.45-.277 2.626 1.106 5.525 3.576 6.987 1 .36 2.347.701 3.392.191 2.513-1.164 3.554-3.832 4.022-6.29-.063-.469-.04-1.38-.7-1.402-.746.468-1.832.191-2.622 0-.467.15-.488.829-1.02.958l-.323-.257c-.277-1.164-.448-2.817.64-3.623 1.214-.487 2.641-.7 3.898-.317.234-.403-.128-.72-.193-1.08Zm-1.282 2.09-.25.008c-.447.297-1.747.084-1.278 1.08.81-.637 1.94-.19 2.749.126.299-.148.234-.444.254-.7-.26-.481-.881-.526-1.475-.515Zm9.273-8.96c-1.577-.083-2.897.807-4.345 1.21-.127-1.226.81-2.521 1.024-3.753-2.343.15-4.198 1.553-6.135 2.673a954.922 954.922 0 0 1-1.344-3.243l2.556-2.416.066-.319-3.453-.191c-.594-1.037-.829-2.285-1.532-3.239-.575 1.08-.961 2.225-1.536 3.304l-3.448.192v.253l2.617 2.35c-.32 1.209-.617 2.522-1.405 3.436-1.533-.914-3.045-1.909-4.726-2.543-.404-.13-.981-.341-1.343-.066.531 1.166 1.276 2.42 1.15 3.693-.702-.129-1.255-.578-1.916-.766-.79-.215-1.728-.634-2.494-.379 1.278 1.78 2.321 3.64 2.682 5.782 4.24-2.036 9.186-3.156 14.319-2.286 2.406.38 4.619 1.356 6.77 2.16.084-2.246 1.511-4.05 2.493-5.852Zm7.282 12.207c2.17.572 4.348 2.925 6.647 1.398-2.002-3.305-4.982-6.357-4.153-10.68.087-.294-.105-.593-.38-.635-1.3.528-2.305 1.801-2.819 3.053-.211.74-.337 1.526-.634 2.224-1.556-.806-3.216-1.586-5.112-1.398-.684.085-1.663.13-1.79.828 2.152 1.144 3.92 3.052 5.239 5.085.918-.15 2.043-.022 3.002.125Zm-22.748 2.987.062.383c.832.552 1.088 1.487 2.24 1.402 1.022.06 1.789-.892 2.298-1.654-1.383-.19-3.066.104-4.6-.13Zm1.151-1.715c.042.17-.105.424.127.51.682-.148 1.916.36 2.297-.445-.266-.296-.7-.43-1.155-.43-.455 0-.927.132-1.269.365Z"/>
  </g>
  <g clip-path="url(#c)">
    <g filter="url(#d)">
      <path fill="#4997CF" d="M23 29.625c-10.135 0-18.375 8.24-18.375 18.375S12.865 66.375 23 66.375 41.375 58.135 41.375 48 33.135 29.625 23 29.625Z"/>
      <path stroke="#fff" stroke-width="3" d="M23 28.125C12.037 28.125 3.125 37.037 3.125 48S12.037 67.875 23 67.875 42.875 58.963 42.875 48 33.963 28.125 23 28.125Z"/>
    </g>
    <path fill="#fff" d="M29.213 42c.543.896.787 1.82.787 2.986 0 3.721-3.176 8.553-5.754 11.946H18.36L16 42.815l5.156-.49L22.41 52.37c1.165-1.9 2.605-4.887 2.605-6.921 0-1.115-.19-1.873-.49-2.497L29.214 42Z"/>
  </g>
  <g clip-path="url(#e)">
    <g filter="url(#f)">
      <path fill="#F90" d="M85.5 3.625c-13.755 0-24.938 11.38-24.938 25.375 0 13.996 11.183 25.375 24.938 25.375 13.755 0 24.938-11.38 24.938-25.375 0-13.996-11.183-25.375-24.938-25.375Z"/>
      <path stroke="#fff" stroke-width="3" d="M85.5 2.125C70.892 2.125 59.062 14.2 59.062 29S70.892 55.875 85.5 55.875c14.608 0 26.438-12.075 26.438-26.875S100.108 2.125 85.5 2.125Z"/>
    </g>
    <path fill="#fff" fill-rule="evenodd" d="M94.068 32.694a28.887 28.887 0 0 0-.22-.316c-.597-.846-1.166-1.652-1.166-3.269v-6.026c0-.21.001-.417.003-.624.013-2.31.024-4.418-1.613-6.031-1.404-1.425-3.737-1.928-5.521-1.928-3.49 0-7.382 1.373-8.198 5.923-.086.484.247.737.548.808l3.553.406c.333-.018.573-.363.637-.71.305-1.569 1.55-2.322 2.948-2.322.754 0 1.61.29 2.056 1.005.46.711.453 1.661.447 2.511l-.002.292v.505c-.33.04-.675.076-1.03.114-1.938.207-4.183.446-5.865 1.224-2.295 1.049-3.907 3.184-3.907 6.321 0 4.02 2.398 6.031 5.487 6.031 2.606 0 4.032-.65 6.043-2.812.1.154.19.295.275.429.48.752.793 1.243 1.826 2.15.273.154.634.148.876-.083.732-.687 2.061-1.906 2.81-2.569.3-.259.247-.678.013-1.03Zm-7.214-1.738c-.582 1.091-1.508 1.759-2.538 1.759-1.405 0-2.23-1.132-2.23-2.806 0-3.295 2.803-3.893 5.454-3.893l.003.594c.013 1.492.026 3.013-.689 4.346Z" clip-rule="evenodd"/>
    <path fill="#fff" d="M98.45 39.27c-3.51 2.76-8.6 4.23-12.982 4.23-6.14 0-11.672-2.42-15.858-6.45-.328-.317-.035-.75.36-.504 4.516 2.803 10.1 4.49 15.867 4.49 3.891 0 8.168-.86 12.102-2.642.594-.267 1.092.419.51.875Z"/>
    <path fill="#fff" d="M95.812 37.346c1.13-.145 3.65-.468 4.098.145.449.611-.494 3.127-.92 4.26l-.003.01c-.127.34.148.477.437.218 1.884-1.679 2.37-5.198 1.984-5.708-.383-.503-3.675-.939-5.684.566-.309.233-.256.552.088.51Z"/>
  </g>
  <defs>
    <clipPath id="a">
      <path fill="#fff" d="M45 65h64v66H45z"/>
    </clipPath>
    <clipPath id="c">
      <path fill="#fff" d="M0 25h46v48H0z"/>
    </clipPath>
    <clipPath id="e">
      <path fill="#fff" d="M57 0h57v60H57z"/>
    </clipPath>
    <filter id="b" width="64" height="66" x="45" y="65" color-interpolation-filters="sRGB" filterUnits="userSpaceOnUse">
      <feFlood flood-opacity="0" result="BackgroundImageFix"/>
      <feColorMatrix in="SourceAlpha" result="hardAlpha" values="0 0 0 0 0 0 0 0 0 0 0 0 0 0 0 0 0 0 127 0"/>
      <feOffset/>
      <feGaussianBlur stdDeviation=".5"/>
      <feColorMatrix values="0 0 0 0 0 0 0 0 0 0 0 0 0 0 0 0 0 0 0.25 0"/>
      <feBlend in2="BackgroundImageFix" result="effect1_dropShadow_1206_12584"/>
      <feColorMatrix in="SourceAlpha" result="hardAlpha" values="0 0 0 0 0 0 0 0 0 0 0 0 0 0 0 0 0 0 127 0"/>
      <feOffset dy="2"/>
      <feGaussianBlur stdDeviation=".5"/>
      <feColorMatrix values="0 0 0 0 0 0 0 0 0 0 0 0 0 0 0 0 0 0 0.05 0"/>
      <feBlend in2="effect1_dropShadow_1206_12584" result="effect2_dropShadow_1206_12584"/>
      <feBlend in="SourceGraphic" in2="effect2_dropShadow_1206_12584" result="shape"/>
    </filter>
    <filter id="d" width="44.75" height="46.75" x=".625" y="25.625" color-interpolation-filters="sRGB" filterUnits="userSpaceOnUse">
      <feFlood flood-opacity="0" result="BackgroundImageFix"/>
      <feColorMatrix in="SourceAlpha" result="hardAlpha" values="0 0 0 0 0 0 0 0 0 0 0 0 0 0 0 0 0 0 127 0"/>
      <feOffset/>
      <feGaussianBlur stdDeviation=".5"/>
      <feColorMatrix values="0 0 0 0 0 0 0 0 0 0 0 0 0 0 0 0 0 0 0.25 0"/>
      <feBlend in2="BackgroundImageFix" result="effect1_dropShadow_1206_12584"/>
      <feColorMatrix in="SourceAlpha" result="hardAlpha" values="0 0 0 0 0 0 0 0 0 0 0 0 0 0 0 0 0 0 127 0"/>
      <feOffset dy="2"/>
      <feGaussianBlur stdDeviation=".5"/>
      <feColorMatrix values="0 0 0 0 0 0 0 0 0 0 0 0 0 0 0 0 0 0 0.05 0"/>
      <feBlend in2="effect1_dropShadow_1206_12584" result="effect2_dropShadow_1206_12584"/>
      <feBlend in="SourceGraphic" in2="effect2_dropShadow_1206_12584" result="shape"/>
    </filter>
    <filter id="f" width="57.875" height="60.75" x="56.563" y="-.375" color-interpolation-filters="sRGB" filterUnits="userSpaceOnUse">
      <feFlood flood-opacity="0" result="BackgroundImageFix"/>
      <feColorMatrix in="SourceAlpha" result="hardAlpha" values="0 0 0 0 0 0 0 0 0 0 0 0 0 0 0 0 0 0 127 0"/>
      <feOffset/>
      <feGaussianBlur stdDeviation=".5"/>
      <feColorMatrix values="0 0 0 0 0 0 0 0 0 0 0 0 0 0 0 0 0 0 0.25 0"/>
      <feBlend in2="BackgroundImageFix" result="effect1_dropShadow_1206_12584"/>
      <feColorMatrix in="SourceAlpha" result="hardAlpha" values="0 0 0 0 0 0 0 0 0 0 0 0 0 0 0 0 0 0 127 0"/>
      <feOffset dy="2"/>
      <feGaussianBlur stdDeviation=".5"/>
      <feColorMatrix values="0 0 0 0 0 0 0 0 0 0 0 0 0 0 0 0 0 0 0.05 0"/>
      <feBlend in2="effect1_dropShadow_1206_12584" result="effect2_dropShadow_1206_12584"/>
      <feBlend in="SourceGraphic" in2="effect2_dropShadow_1206_12584" result="shape"/>
    </filter>
  </defs>
</svg>
