<svg xmlns="http://www.w3.org/2000/svg" width="280" height="161" fill="none">
  <path fill="#fff" d="M0 0h280v161H0z"/>
  <path fill="#202223" d="m30.912 35-2.656-3.76c1.568-.56 2.464-1.808 2.464-3.536 0-2.432-1.76-3.904-4.672-3.904H21.68V35h1.6v-3.408h2.768c.24 0 .48-.016.704-.032L29.168 35h1.744ZM26 30.232h-2.72v-5.04H26c2.048 0 3.12.912 3.12 2.512s-1.072 2.528-3.12 2.528Zm14.745.576c0-2.608-1.744-4.368-4.192-4.368-2.448 0-4.256 1.808-4.256 4.32 0 2.528 1.824 4.336 4.56 4.336 1.408 0 2.576-.48 3.344-1.376l-.848-.992c-.624.688-1.456 1.024-2.448 1.024-1.68 0-2.88-.992-3.072-2.48h6.88c.016-.144.032-.336.032-.464Zm-4.192-3.072c1.488 0 2.56 1.008 2.72 2.432h-5.44c.16-1.44 1.248-2.432 2.72-2.432Zm17.625-1.216-2.528 6.784-2.512-6.784h-1.296l-2.56 6.752-2.464-6.752h-1.456L44.514 35h1.472l2.48-6.432L50.914 35h1.472l3.168-8.48h-1.376Zm5.757-.08c-1.36 0-2.624.384-3.504 1.088l.64 1.152c.656-.56 1.68-.912 2.688-.912 1.52 0 2.272.752 2.272 2.048v.304h-2.432c-2.528 0-3.408 1.12-3.408 2.48 0 1.472 1.216 2.496 3.136 2.496 1.328 0 2.272-.448 2.784-1.216V35h1.456v-5.12c0-2.32-1.312-3.44-3.632-3.44Zm-.352 7.472c-1.168 0-1.872-.528-1.872-1.376 0-.72.432-1.312 1.952-1.312h2.368v1.184c-.384.976-1.296 1.504-2.448 1.504Zm8.298-5.968V26.52H66.41V35h1.536v-4.224c0-1.856 1.024-2.864 2.672-2.864.112 0 .224 0 .352.016V26.44c-1.488 0-2.544.512-3.088 1.504Zm11.367-4.816V27.8c-.704-.912-1.76-1.36-2.96-1.36-2.48 0-4.288 1.728-4.288 4.32 0 2.592 1.808 4.336 4.288 4.336 1.248 0 2.336-.48 3.024-1.44V35h1.472V23.128h-1.536Zm-2.832 10.624c-1.632 0-2.864-1.184-2.864-2.992s1.232-2.976 2.864-2.976c1.616 0 2.848 1.168 2.848 2.976s-1.232 2.992-2.848 2.992Zm9.706 1.344c2.256 0 3.664-.976 3.664-2.512 0-3.296-5.376-1.664-5.376-3.664 0-.672.656-1.168 2-1.168.832 0 1.68.176 2.448.672l.656-1.216c-.736-.48-1.984-.768-3.088-.768-2.176 0-3.536 1.024-3.536 2.544 0 3.376 5.36 1.728 5.36 3.632 0 .72-.592 1.152-2.016 1.152-1.104 0-2.256-.368-2.976-.88l-.64 1.216c.704.56 2.096.992 3.504.992Z"/>
  <path fill="#164ED0" d="M57.28 76.944c0-2.192-1.92-2.72-3.712-3.168v-3.728c.896.048 1.856.352 2.72.896l.528-1.28c-.848-.576-2.048-.928-3.248-.976V66.88h-1.024v1.824c-2.48.208-3.616 1.584-3.616 3.168 0 2.176 1.856 2.736 3.616 3.168v3.712c-1.296-.08-2.544-.592-3.296-1.28l-.592 1.248c.832.768 2.32 1.312 3.888 1.392v1.808h1.024v-1.808c2.528-.208 3.712-1.584 3.712-3.168Zm-6.784-5.136c0-.848.624-1.568 2.048-1.744v3.456c-1.152-.304-2.048-.72-2.048-1.712Zm3.072 6.928v-3.44c1.184.32 2.144.72 2.144 1.744 0 .864-.656 1.552-2.144 1.696Zm7.266-.128 3.423-3.296c1.52-1.456 1.84-2.432 1.84-3.52 0-1.92-1.503-3.12-3.84-3.12-1.743 0-3.231.624-4.096 1.696l1.088.944c.688-.832 1.664-1.216 2.864-1.216 1.569 0 2.385.704 2.385 1.856 0 .704-.225 1.408-1.409 2.56l-4.56 4.4V80h8.048v-1.392h-5.743Zm8.271 1.488c.576 0 1.056-.464 1.056-1.104 0-.64-.48-1.088-1.056-1.088-.592 0-1.088.448-1.088 1.088 0 .64.496 1.104 1.088 1.104Zm5.77-6.832h-1.249l.304-3.072h4.976V68.8h-6.32l-.592 5.856h2.544c2.592 0 3.392.784 3.392 2.048 0 1.216-.96 2-2.656 2-1.36 0-2.608-.496-3.36-1.2l-.736 1.264c.96.848 2.528 1.36 4.112 1.36 2.864 0 4.24-1.552 4.24-3.488 0-1.984-1.312-3.376-4.656-3.376Zm10.563 6.864c2.608 0 4.56-2.08 4.56-5.728 0-3.648-1.952-5.728-4.56-5.728-2.624 0-4.576 2.08-4.576 5.728 0 3.648 1.952 5.728 4.576 5.728Zm0-1.424c-1.76 0-2.976-1.44-2.976-4.304 0-2.864 1.216-4.304 2.976-4.304 1.744 0 2.96 1.44 2.96 4.304 0 2.864-1.216 4.304-2.96 4.304Z"/>
  <rect width="97" height="38" x="21" y="55" stroke="#164ED0" stroke-width="2" rx="19"/>
  <path fill="#616161" d="M164.28 76.944c0-2.192-1.92-2.72-3.712-3.168v-3.728c.896.048 1.856.352 2.72.896l.528-1.28c-.848-.576-2.048-.928-3.248-.976V66.88h-1.024v1.824c-2.48.208-3.616 1.584-3.616 3.168 0 2.176 1.856 2.736 3.616 3.168v3.712c-1.296-.08-2.544-.592-3.296-1.28l-.592 1.248c.832.768 2.32 1.312 3.888 1.392v1.808h1.024v-1.808c2.528-.208 3.712-1.584 3.712-3.168Zm-6.784-5.136c0-.848.624-1.568 2.048-1.744v3.456c-1.152-.304-2.048-.72-2.048-1.712Zm3.072 6.928v-3.44c1.184.32 2.144.72 2.144 1.744 0 .864-.656 1.552-2.144 1.696Zm8.338-5.472h-1.248l.304-3.072h4.976V68.8h-6.32l-.592 5.856h2.544c2.592 0 3.392.784 3.392 2.048 0 1.216-.96 2-2.656 2-1.36 0-2.608-.496-3.36-1.2l-.736 1.264c.96.848 2.528 1.36 4.112 1.36 2.864 0 4.24-1.552 4.24-3.488 0-1.984-1.312-3.376-4.656-3.376Zm7.043 6.832c.576 0 1.056-.464 1.056-1.104 0-.64-.48-1.088-1.056-1.088-.592 0-1.088.448-1.088 1.088 0 .64.496 1.104 1.088 1.104Zm5.769-6.832h-1.248l.304-3.072h4.976V68.8h-6.32l-.592 5.856h2.544c2.592 0 3.392.784 3.392 2.048 0 1.216-.96 2-2.656 2-1.36 0-2.608-.496-3.36-1.2l-.736 1.264c.96.848 2.528 1.36 4.112 1.36 2.864 0 4.24-1.552 4.24-3.488 0-1.984-1.312-3.376-4.656-3.376Zm10.564 6.864c2.608 0 4.56-2.08 4.56-5.728 0-3.648-1.952-5.728-4.56-5.728-2.624 0-4.576 2.08-4.576 5.728 0 3.648 1.952 5.728 4.576 5.728Zm0-1.424c-1.76 0-2.976-1.44-2.976-4.304 0-2.864 1.216-4.304 2.976-4.304 1.744 0 2.96 1.44 2.96 4.304 0 2.864-1.216 4.304-2.96 4.304Z"/>
  <rect width="97.5" height="38.5" x="127.75" y="54.75" stroke="#EEE" stroke-width="1.5" rx="19.25"/>
  <path fill="#616161" d="M57.28 128.944c0-2.192-1.92-2.72-3.712-3.168v-3.728c.896.048 1.856.352 2.72.896l.528-1.28c-.848-.576-2.048-.928-3.248-.976v-1.808h-1.024v1.824c-2.48.208-3.616 1.584-3.616 3.168 0 2.176 1.856 2.736 3.616 3.168v3.712c-1.296-.08-2.544-.592-3.296-1.28l-.592 1.248c.832.768 2.32 1.312 3.888 1.392v1.808h1.024v-1.808c2.528-.208 3.712-1.584 3.712-3.168Zm-6.784-5.136c0-.848.624-1.568 2.048-1.744v3.456c-1.152-.304-2.048-.72-2.048-1.712Zm3.072 6.928v-3.44c1.184.32 2.144.72 2.144 1.744 0 .864-.656 1.552-2.144 1.696Zm4.341-9.936v1.392h2.528V132h1.584v-11.2H57.91Zm11.138 11.328c2.608 0 4.56-2.08 4.56-5.728 0-3.648-1.952-5.728-4.56-5.728-2.624 0-4.576 2.08-4.576 5.728 0 3.648 1.952 5.728 4.576 5.728Zm0-1.424c-1.76 0-2.976-1.44-2.976-4.304 0-2.864 1.216-4.304 2.976-4.304 1.744 0 2.96 1.44 2.96 4.304 0 2.864-1.216 4.304-2.96 4.304Zm6.965 1.392c.576 0 1.055-.464 1.055-1.104 0-.64-.48-1.088-1.055-1.088-.593 0-1.088.448-1.088 1.088 0 .64.495 1.104 1.087 1.104Zm6.957.032c2.608 0 4.56-2.08 4.56-5.728 0-3.648-1.952-5.728-4.56-5.728-2.624 0-4.576 2.08-4.576 5.728 0 3.648 1.952 5.728 4.576 5.728Zm0-1.424c-1.76 0-2.976-1.44-2.976-4.304 0-2.864 1.216-4.304 2.976-4.304 1.744 0 2.96 1.44 2.96 4.304 0 2.864-1.216 4.304-2.96 4.304Zm10.672 1.424c2.608 0 4.56-2.08 4.56-5.728 0-3.648-1.952-5.728-4.56-5.728-2.624 0-4.576 2.08-4.576 5.728 0 3.648 1.952 5.728 4.576 5.728Zm0-1.424c-1.76 0-2.976-1.44-2.976-4.304 0-2.864 1.216-4.304 2.976-4.304 1.744 0 2.96 1.44 2.96 4.304 0 2.864-1.216 4.304-2.96 4.304Z"/>
  <rect width="105.5" height="38.5" x="20.75" y="106.75" stroke="#EEE" stroke-width="1.5" rx="19.25"/>
  <rect width="109.5" height="38.5" x="135.75" y="106.75" fill="#fff" rx="19.25"/>
  <path fill="#616161" d="M172.28 128.944c0-2.192-1.92-2.72-3.712-3.168v-3.728c.896.048 1.856.352 2.72.896l.528-1.28c-.848-.576-2.048-.928-3.248-.976v-1.808h-1.024v1.824c-2.48.208-3.616 1.584-3.616 3.168 0 2.176 1.856 2.736 3.616 3.168v3.712c-1.296-.08-2.544-.592-3.296-1.28l-.592 1.248c.832.768 2.32 1.312 3.888 1.392v1.808h1.024v-1.808c2.528-.208 3.712-1.584 3.712-3.168Zm-6.784-5.136c0-.848.624-1.568 2.048-1.744v3.456c-1.152-.304-2.048-.72-2.048-1.712Zm3.072 6.928v-3.44c1.184.32 2.144.72 2.144 1.744 0 .864-.656 1.552-2.144 1.696Zm7.266-.128 3.424-3.296c1.52-1.456 1.84-2.432 1.84-3.52 0-1.92-1.504-3.12-3.84-3.12-1.744 0-3.232.624-4.096 1.696l1.088.944c.688-.832 1.664-1.216 2.864-1.216 1.568 0 2.384.704 2.384 1.856 0 .704-.224 1.408-1.408 2.56l-4.56 4.4V132h8.048v-1.392h-5.744Zm11.588 1.52c2.608 0 4.56-2.08 4.56-5.728 0-3.648-1.952-5.728-4.56-5.728-2.624 0-4.576 2.08-4.576 5.728 0 3.648 1.952 5.728 4.576 5.728Zm0-1.424c-1.76 0-2.976-1.44-2.976-4.304 0-2.864 1.216-4.304 2.976-4.304 1.744 0 2.96 1.44 2.96 4.304 0 2.864-1.216 4.304-2.96 4.304Zm6.965 1.392c.576 0 1.056-.464 1.056-1.104 0-.64-.48-1.088-1.056-1.088-.592 0-1.088.448-1.088 1.088 0 .64.496 1.104 1.088 1.104Zm6.957.032c2.608 0 4.56-2.08 4.56-5.728 0-3.648-1.952-5.728-4.56-5.728-2.624 0-4.576 2.08-4.576 5.728 0 3.648 1.952 5.728 4.576 5.728Zm0-1.424c-1.76 0-2.976-1.44-2.976-4.304 0-2.864 1.216-4.304 2.976-4.304 1.744 0 2.96 1.44 2.96 4.304 0 2.864-1.216 4.304-2.96 4.304Zm10.672 1.424c2.608 0 4.56-2.08 4.56-5.728 0-3.648-1.952-5.728-4.56-5.728-2.624 0-4.576 2.08-4.576 5.728 0 3.648 1.952 5.728 4.576 5.728Zm0-1.424c-1.76 0-2.976-1.44-2.976-4.304 0-2.864 1.216-4.304 2.976-4.304 1.744 0 2.96 1.44 2.96 4.304 0 2.864-1.216 4.304-2.96 4.304Z"/>
  <rect width="109.5" height="38.5" x="135.75" y="106.75" stroke="#EEE" stroke-width="1.5" rx="19.25"/>
</svg>
