<svg xmlns="http://www.w3.org/2000/svg" width="280" height="155" fill="none">
  <path fill="#fff" d="M0 0h280v155H0z"/>
  <rect width="232" height="30" x="24" y="36" fill="#F5F5F5" rx="4"/>
  <path stroke="#9E9E9E" stroke-linecap="round" stroke-linejoin="round" stroke-width="1.2" d="M51.25 44.813 43 52.374l-8.25-7.563"/>
  <path stroke="#9E9E9E" stroke-linecap="round" stroke-linejoin="round" stroke-width="1.2" d="M34.75 44.813h16.5V56.5a.687.687 0 0 1-.688.688H35.438a.687.687 0 0 1-.688-.688V44.812ZM41.496 51l-6.531 5.99M51.035 56.99 44.504 51"/>
  <path fill="#8C9196" d="M65.368 57.4c-.304 0-.6-.052-.888-.156a2.025 2.025 0 0 1-.744-.432l.492-.864c.16.152.336.268.528.348.192.08.396.12.612.12.28 0 .512-.072.696-.216.184-.144.356-.4.516-.768l.396-.876.12-.144 2.496-5.772h1.128l-3.084 6.996c-.184.448-.392.8-.624 1.056a1.888 1.888 0 0 1-.744.54 2.342 2.342 0 0 1-.9.168Zm1.512-2.196-2.904-6.564h1.2l2.472 5.664-.768.9Zm7.463-.132c-.64 0-1.208-.14-1.704-.42a3.126 3.126 0 0 1-1.176-1.152 3.284 3.284 0 0 1-.432-1.68c0-.632.144-1.192.432-1.68.288-.488.68-.868 1.176-1.14.496-.28 1.064-.42 1.704-.42.632 0 1.196.14 1.692.42.504.272.896.652 1.176 1.14.288.48.432 1.04.432 1.68 0 .632-.144 1.192-.432 1.68-.28.488-.672.872-1.176 1.152-.496.28-1.06.42-1.692.42Zm0-1.008a2.15 2.15 0 0 0 1.092-.276c.328-.184.584-.444.768-.78a2.48 2.48 0 0 0 .276-1.188c0-.456-.092-.848-.276-1.176a1.948 1.948 0 0 0-.768-.78 2.15 2.15 0 0 0-1.092-.276 2.15 2.15 0 0 0-1.092.276c-.32.184-.576.444-.768.78-.192.328-.288.72-.288 1.176 0 .448.096.844.288 1.188.192.336.448.596.768.78.32.184.684.276 1.092.276Zm7.57 1.008c-.544 0-1.025-.1-1.44-.3a2.2 2.2 0 0 1-.96-.912c-.225-.416-.337-.936-.337-1.56v-3.66h1.153v3.528c0 .624.148 1.092.444 1.404.303.312.728.468 1.272.468.4 0 .748-.08 1.043-.24a1.7 1.7 0 0 0 .684-.72c.16-.32.24-.704.24-1.152V48.64h1.153V55h-1.093v-1.716l.18.456c-.207.424-.52.752-.935.984a2.833 2.833 0 0 1-1.404.348ZM87.357 55v-6.36h1.104v1.728l-.108-.432c.176-.44.472-.776.888-1.008.416-.232.928-.348 1.536-.348v1.116a.875.875 0 0 0-.144-.012h-.12c-.616 0-1.104.184-1.464.552-.36.368-.54.9-.54 1.596V55h-1.152Zm7.613.072c-.68 0-1.28-.14-1.8-.42a3.08 3.08 0 0 1-1.2-1.152c-.28-.488-.42-1.048-.42-1.68 0-.632.136-1.192.408-1.68a3 3 0 0 1 1.14-1.14 3.244 3.244 0 0 1 1.644-.42c.616 0 1.16.136 1.632.408.472.272.84.656 1.104 1.152.272.488.408 1.06.408 1.716 0 .048-.004.104-.012.168 0 .064-.004.124-.012.18H92.45v-.828h4.812l-.468.288a2.139 2.139 0 0 0-.252-1.092 1.872 1.872 0 0 0-.732-.744 2.022 2.022 0 0 0-1.068-.276c-.4 0-.756.092-1.068.276a1.852 1.852 0 0 0-.732.756c-.176.32-.264.688-.264 1.104v.192c0 .424.096.804.288 1.14.2.328.476.584.828.768.352.184.756.276 1.212.276.376 0 .716-.064 1.02-.192.312-.128.584-.32.816-.576l.636.744a2.777 2.777 0 0 1-1.08.768c-.424.176-.9.264-1.428.264Zm12.472-6.492c.512 0 .964.1 1.356.3.392.2.696.504.912.912.224.408.336.924.336 1.548V55h-1.152v-3.528c0-.616-.144-1.08-.432-1.392-.288-.312-.692-.468-1.212-.468-.384 0-.72.08-1.008.24-.288.16-.512.396-.672.708-.152.312-.228.7-.228 1.164V55h-1.152v-3.528c0-.616-.144-1.08-.432-1.392-.28-.312-.684-.468-1.212-.468-.376 0-.708.08-.996.24-.288.16-.512.396-.672.708-.16.312-.24.7-.24 1.164V55h-1.152v-6.36h1.104v1.692l-.18-.432c.2-.416.508-.74.924-.972.416-.232.9-.348 1.452-.348.608 0 1.132.152 1.572.456.44.296.728.748.864 1.356l-.468-.192c.192-.488.528-.88 1.008-1.176.48-.296 1.04-.444 1.68-.444Zm8.671 6.42v-1.344l-.06-.252v-2.292c0-.488-.144-.864-.432-1.128-.28-.272-.704-.408-1.272-.408-.376 0-.744.064-1.104.192a2.76 2.76 0 0 0-.912.492l-.48-.864c.328-.264.72-.464 1.176-.6a4.87 4.87 0 0 1 1.452-.216c.872 0 1.544.212 2.016.636.472.424.708 1.072.708 1.944V55h-1.092Zm-2.088.072c-.472 0-.888-.08-1.248-.24a1.927 1.927 0 0 1-.816-.66 1.713 1.713 0 0 1-.288-.972c0-.344.08-.656.24-.936.168-.28.436-.504.804-.672.376-.168.88-.252 1.512-.252h2.016v.828h-1.968c-.576 0-.964.096-1.164.288a.93.93 0 0 0-.3.696.91.91 0 0 0 .372.756c.248.184.592.276 1.032.276.432 0 .808-.096 1.128-.288a1.63 1.63 0 0 0 .708-.84l.228.792a1.82 1.82 0 0 1-.804.9c-.384.216-.868.324-1.452.324Zm5.312-.072v-6.36h1.152V55h-1.152Zm.576-7.584a.789.789 0 0 1-.564-.216.718.718 0 0 1-.216-.528c0-.216.072-.396.216-.54a.789.789 0 0 1 .564-.216c.224 0 .408.072.552.216a.662.662 0 0 1 .228.516c0 .216-.072.4-.216.552a.763.763 0 0 1-.564.216ZM122.69 55v-8.904h1.152V55h-1.152Zm8.451 2.424c-.832 0-1.592-.136-2.28-.408a5.252 5.252 0 0 1-1.776-1.14 5.115 5.115 0 0 1-1.152-1.728 5.799 5.799 0 0 1-.408-2.196c0-.792.136-1.52.408-2.184a5.115 5.115 0 0 1 1.152-1.728 5.209 5.209 0 0 1 1.8-1.128c.696-.264 1.464-.396 2.304-.396.824 0 1.576.128 2.256.384.68.256 1.268.62 1.764 1.092.504.464.892 1.02 1.164 1.668.272.64.408 1.348.408 2.124 0 .68-.084 1.264-.252 1.752-.168.488-.412.868-.732 1.14-.312.264-.696.396-1.152.396-.448 0-.808-.136-1.08-.408-.264-.272-.396-.66-.396-1.164v-.816l.06-.732-.108-1.38v-1.596h1.044v4.32c0 .32.064.544.192.672.136.128.3.192.492.192a.786.786 0 0 0 .6-.276c.176-.184.304-.452.384-.804.088-.36.132-.788.132-1.284 0-.672-.116-1.28-.348-1.824a3.941 3.941 0 0 0-.984-1.428 4.252 4.252 0 0 0-1.512-.912c-.576-.216-1.22-.324-1.932-.324s-1.364.116-1.956.348a4.36 4.36 0 0 0-1.512.96 4.218 4.218 0 0 0-.984 1.464 5.06 5.06 0 0 0-.336 1.872c0 .688.112 1.32.336 1.896a4.16 4.16 0 0 0 .96 1.464c.424.416.924.736 1.5.96a5.223 5.223 0 0 0 1.944.348c.368 0 .756-.044 1.164-.132.408-.08.792-.212 1.152-.396l.264.768a5.084 5.084 0 0 1-1.248.42 6.576 6.576 0 0 1-1.332.144Zm-.216-2.352c-.568 0-1.072-.132-1.512-.396a2.947 2.947 0 0 1-1.044-1.104c-.256-.464-.384-.992-.384-1.584 0-.6.128-1.128.384-1.584a2.768 2.768 0 0 1 1.044-1.08c.44-.264.944-.396 1.512-.396.552 0 1.036.12 1.452.36.416.232.74.576.972 1.032.24.456.36 1.012.36 1.668 0 .656-.116 1.212-.348 1.668a2.537 2.537 0 0 1-.972 1.056c-.416.24-.904.36-1.464.36Zm.168-.936c.392 0 .74-.084 1.044-.252.312-.176.556-.424.732-.744.184-.328.276-.712.276-1.152 0-.448-.092-.832-.276-1.152a1.792 1.792 0 0 0-.732-.732 2.122 2.122 0 0 0-1.044-.252c-.4 0-.756.088-1.068.264a1.813 1.813 0 0 0-.72.732c-.168.32-.252.7-.252 1.14 0 .432.084.808.252 1.128.176.32.416.572.72.756.312.176.668.264 1.068.264Zm10.142 3.264a5.82 5.82 0 0 1-1.704-.252c-.544-.16-.988-.392-1.332-.696l.552-.888c.296.256.66.456 1.092.6.432.152.884.228 1.356.228.752 0 1.304-.176 1.656-.528.352-.352.528-.888.528-1.608v-1.344l.12-1.26-.06-1.272v-1.74h1.092v5.496c0 1.12-.28 1.944-.84 2.472-.56.528-1.38.792-2.46.792Zm-.144-2.664c-.616 0-1.168-.128-1.656-.384a3.081 3.081 0 0 1-1.152-1.092c-.28-.464-.42-1-.42-1.608 0-.616.14-1.152.42-1.608a2.99 2.99 0 0 1 1.152-1.08c.488-.256 1.04-.384 1.656-.384.544 0 1.04.112 1.488.336.448.216.804.552 1.068 1.008.272.456.408 1.032.408 1.728 0 .688-.136 1.26-.408 1.716-.264.456-.62.8-1.068 1.032a3.28 3.28 0 0 1-1.488.336Zm.132-1.008c.424 0 .8-.088 1.128-.264a2.019 2.019 0 0 0 1.056-1.812c0-.408-.096-.768-.288-1.08a1.853 1.853 0 0 0-.768-.72 2.349 2.349 0 0 0-1.128-.264 2.42 2.42 0 0 0-1.14.264 1.934 1.934 0 0 0-.78.72 2.086 2.086 0 0 0-.276 1.08c0 .408.092.768.276 1.08.192.312.452.556.78.732a2.42 2.42 0 0 0 1.14.264Zm13.47-5.148c.512 0 .964.1 1.356.3.392.2.696.504.912.912.224.408.336.924.336 1.548V55h-1.152v-3.528c0-.616-.144-1.08-.432-1.392-.288-.312-.692-.468-1.212-.468-.384 0-.72.08-1.008.24-.288.16-.512.396-.672.708-.152.312-.228.7-.228 1.164V55h-1.152v-3.528c0-.616-.144-1.08-.432-1.392-.28-.312-.684-.468-1.212-.468-.376 0-.708.08-.996.24-.288.16-.512.396-.672.708-.16.312-.24.7-.24 1.164V55h-1.152v-6.36h1.104v1.692l-.18-.432c.2-.416.508-.74.924-.972.416-.232.9-.348 1.452-.348.608 0 1.132.152 1.572.456.44.296.728.748.864 1.356l-.468-.192c.192-.488.528-.88 1.008-1.176.48-.296 1.04-.444 1.68-.444Zm8.671 6.42v-1.344l-.06-.252v-2.292c0-.488-.144-.864-.432-1.128-.28-.272-.704-.408-1.272-.408-.376 0-.744.064-1.104.192a2.76 2.76 0 0 0-.912.492l-.48-.864c.328-.264.72-.464 1.176-.6a4.87 4.87 0 0 1 1.452-.216c.872 0 1.544.212 2.016.636.472.424.708 1.072.708 1.944V55h-1.092Zm-2.088.072c-.472 0-.888-.08-1.248-.24a1.927 1.927 0 0 1-.816-.66 1.713 1.713 0 0 1-.288-.972c0-.344.08-.656.24-.936.168-.28.436-.504.804-.672.376-.168.88-.252 1.512-.252h2.016v.828h-1.968c-.576 0-.964.096-1.164.288a.93.93 0 0 0-.3.696.91.91 0 0 0 .372.756c.248.184.592.276 1.032.276.432 0 .808-.096 1.128-.288a1.63 1.63 0 0 0 .708-.84l.228.792a1.82 1.82 0 0 1-.804.9c-.384.216-.868.324-1.452.324Zm5.312-.072v-6.36h1.152V55h-1.152Zm.576-7.584a.789.789 0 0 1-.564-.216.718.718 0 0 1-.216-.528c0-.216.072-.396.216-.54a.789.789 0 0 1 .564-.216c.224 0 .408.072.552.216a.662.662 0 0 1 .228.516c0 .216-.072.4-.216.552a.763.763 0 0 1-.564.216ZM169.94 55v-8.904h1.152V55h-1.152Zm3.627.072a.807.807 0 0 1-.576-.228.814.814 0 0 1-.24-.6c0-.24.08-.436.24-.588a.807.807 0 0 1 .576-.228c.216 0 .4.076.552.228.16.152.24.348.24.588s-.08.44-.24.6a.752.752 0 0 1-.552.228Zm5.074 0c-.648 0-1.228-.14-1.74-.42-.504-.28-.9-.664-1.188-1.152-.288-.488-.432-1.048-.432-1.68 0-.632.144-1.192.432-1.68a3.016 3.016 0 0 1 1.188-1.14c.512-.28 1.092-.42 1.74-.42.576 0 1.088.116 1.536.348.456.224.808.56 1.056 1.008l-.876.564a1.896 1.896 0 0 0-.768-.684 2.071 2.071 0 0 0-.96-.228c-.416 0-.788.092-1.116.276a2.03 2.03 0 0 0-.78.78c-.192.328-.288.72-.288 1.176 0 .456.096.852.288 1.188.192.336.452.596.78.78.328.184.7.276 1.116.276.344 0 .664-.072.96-.216a1.99 1.99 0 0 0 .768-.696l.876.552c-.248.44-.6.78-1.056 1.02-.448.232-.96.348-1.536.348Zm6.714 0c-.64 0-1.208-.14-1.704-.42a3.126 3.126 0 0 1-1.176-1.152 3.284 3.284 0 0 1-.432-1.68c0-.632.144-1.192.432-1.68.288-.488.68-.868 1.176-1.14.496-.28 1.064-.42 1.704-.42.632 0 1.196.14 1.692.42.504.272.896.652 1.176 1.14.288.48.432 1.04.432 1.68 0 .632-.144 1.192-.432 1.68-.28.488-.672.872-1.176 1.152-.496.28-1.06.42-1.692.42Zm0-1.008a2.15 2.15 0 0 0 1.092-.276c.328-.184.584-.444.768-.78a2.48 2.48 0 0 0 .276-1.188c0-.456-.092-.848-.276-1.176a1.948 1.948 0 0 0-.768-.78 2.15 2.15 0 0 0-1.092-.276 2.15 2.15 0 0 0-1.092.276c-.32.184-.576.444-.768.78-.192.328-.288.72-.288 1.176 0 .448.096.844.288 1.188.192.336.448.596.768.78.32.184.684.276 1.092.276Zm12.849-5.484c.512 0 .964.1 1.356.3.392.2.696.504.912.912.224.408.336.924.336 1.548V55h-1.152v-3.528c0-.616-.144-1.08-.432-1.392-.288-.312-.692-.468-1.212-.468-.384 0-.72.08-1.008.24-.288.16-.512.396-.672.708-.152.312-.228.7-.228 1.164V55h-1.152v-3.528c0-.616-.144-1.08-.432-1.392-.28-.312-.684-.468-1.212-.468-.376 0-.708.08-.996.24-.288.16-.512.396-.672.708-.16.312-.24.7-.24 1.164V55h-1.152v-6.36h1.104v1.692l-.18-.432c.2-.416.508-.74.924-.972.416-.232.9-.348 1.452-.348.608 0 1.132.152 1.572.456.44.296.728.748.864 1.356l-.468-.192c.192-.488.528-.88 1.008-1.176.48-.296 1.04-.444 1.68-.444Z"/>
  <rect width="232" height="30" x="24" y="73" fill="#F5F5F5" rx="4"/>
  <path stroke="#9E9E9E" stroke-linecap="round" stroke-linejoin="round" stroke-width="1.2" d="M49.875 84.563h-13.75a.687.687 0 0 0-.688.687v9.625c0 .38.308.688.688.688h13.75c.38 0 .688-.308.688-.688V85.25a.687.687 0 0 0-.688-.688Z"/>
  <path stroke="#9E9E9E" stroke-linecap="round" stroke-linejoin="round" stroke-width="1.2" d="M39.906 84.563v-3.094a3.094 3.094 0 0 1 6.188 0v3.094"/>
  <path fill="#9E9E9E" d="M43 90.922a.86.86 0 1 0 0-1.719.86.86 0 0 0 0 1.719Z"/>
  <path fill="#8C9196" d="m68.572 84.536-.372-.672-1.452.852.012-1.62h-.72l.012 1.62-1.452-.852-.372.672 1.44.792-1.44.804.372.66 1.452-.852-.012 1.632h.72l-.012-1.632 1.452.852.372-.66-1.428-.804 1.428-.792Zm5.04 0-.373-.672-1.452.852.012-1.62h-.72l.012 1.62-1.452-.852-.372.672 1.44.792-1.44.804.372.66 1.452-.852-.012 1.632h.72l-.012-1.632 1.452.852.372-.66-1.428-.804 1.428-.792Zm5.038 0-.372-.672-1.452.852.012-1.62h-.72l.012 1.62-1.452-.852-.372.672 1.44.792-1.44.804.372.66 1.452-.852-.012 1.632h.72l-.012-1.632 1.452.852.372-.66-1.428-.804 1.428-.792Zm5.04 0-.373-.672-1.452.852.012-1.62h-.72l.012 1.62-1.452-.852-.372.672 1.44.792-1.44.804.372.66 1.452-.852-.012 1.632h.72l-.012-1.632 1.452.852.372-.66-1.428-.804 1.428-.792Zm5.038 0-.372-.672-1.452.852.012-1.62h-.72l.012 1.62-1.452-.852-.372.672 1.44.792-1.44.804.372.66 1.452-.852-.012 1.632h.72l-.012-1.632 1.452.852.372-.66-1.428-.804 1.428-.792Zm5.04 0-.373-.672-1.452.852.012-1.62h-.72l.012 1.62-1.452-.852-.372.672 1.44.792-1.44.804.372.66 1.452-.852-.012 1.632h.72l-.012-1.632 1.452.852.372-.66-1.428-.804 1.428-.792Zm5.038 0-.372-.672-1.452.852.012-1.62h-.72l.012 1.62-1.452-.852-.372.672 1.44.792-1.44.804.372.66 1.452-.852-.012 1.632h.72l-.012-1.632 1.452.852.372-.66-1.428-.804 1.428-.792Zm5.039 0-.372-.672-1.452.852.012-1.62h-.72l.012 1.62-1.452-.852-.372.672 1.44.792-1.44.804.372.66 1.452-.852-.012 1.632h.72l-.012-1.632 1.452.852.372-.66-1.428-.804 1.428-.792Zm5.04 0-.372-.672-1.452.852.012-1.62h-.72l.012 1.62-1.452-.852-.372.672 1.44.792-1.44.804.372.66 1.452-.852-.012 1.632h.72l-.012-1.632 1.452.852.372-.66-1.428-.804 1.428-.792Z"/>
  <rect width="60" height="28" x="110" y="113" fill="#164ED0" rx="14"/>
  <path stroke="#fff" stroke-linecap="round" stroke-linejoin="round" stroke-width="2" d="M133.125 127h13.75M141.25 121.375l5.625 5.625-5.625 5.625"/>
</svg>
