<svg width="50" height="30" viewBox="0 0 50 30" fill="none" xmlns="http://www.w3.org/2000/svg">
<rect width="50" height="30" rx="8" fill="url(#paint0_linear)"/>
<path d="M30.1233 10C27.7116 10 25.5564 11.2456 25.5564 13.5469C25.5564 16.1861 29.3787 16.3684 29.3787 17.6943C29.3787 18.2525 28.7367 18.7523 27.6401 18.7523C26.0838 18.7523 24.9206 18.054 24.9206 18.054L24.4229 20.3763C24.4229 20.3763 25.7629 20.9661 27.5419 20.9661C30.1786 20.9661 32.2535 19.6594 32.2535 17.3187C32.2535 14.5299 28.4152 14.353 28.4152 13.1224C28.4152 12.6851 28.9422 12.2059 30.0357 12.2059C31.2694 12.2059 32.276 12.7138 32.276 12.7138L32.7631 10.4708C32.7631 10.4708 31.6679 10 30.1233 10V10ZM8.0584 10.1693L8 10.5078C8 10.5078 9.01461 10.6929 9.92844 11.062C11.1051 11.4852 11.1889 11.7316 11.387 12.4969L13.5464 20.7916H16.4411L20.9005 10.1693H18.0125L15.147 17.3914L13.9778 11.2696C13.8705 10.569 13.3274 10.1693 12.6625 10.1693H8.0584V10.1693ZM22.0618 10.1693L19.7963 20.7916H22.5502L24.8078 10.1693H22.0618V10.1693ZM37.4216 10.1693C36.7575 10.1693 36.4057 10.5236 36.1475 11.1426L32.1128 20.7916H35.0008L35.5596 19.1834H39.078L39.4178 20.7916H41.966L39.7429 10.1693H37.4216V10.1693ZM37.7972 13.0391L38.6533 17.0251H36.3599L37.7972 13.0391V13.0391Z" fill="white"/>
<defs>
<linearGradient id="paint0_linear" x1="-6.62518" y1="20.1944" x2="50.2346" y2="-10.605" gradientUnits="userSpaceOnUse">
<stop offset="0.0001" stop-color="#0C4AD8"/>
<stop offset="0.5" stop-color="#0373FC"/>
<stop offset="0.96875" stop-color="#3A93FF"/>
</linearGradient>
</defs>
</svg>
