<svg width="50" height="30" viewBox="0 0 50 30" fill="none" xmlns="http://www.w3.org/2000/svg">
<rect width="50" height="30" rx="8" fill="url(#paint0_linear)"/>
<path d="M30.1233 9.02161C27.7116 9.02161 25.5564 10.2672 25.5564 12.5685C25.5564 15.2077 29.3787 15.39 29.3787 16.7159C29.3787 17.2741 28.7367 17.7739 27.6401 17.7739C26.0838 17.7739 24.9206 17.0756 24.9206 17.0756L24.4229 19.3979C24.4229 19.3979 25.7629 19.9877 27.5419 19.9877C30.1786 19.9877 32.2535 18.681 32.2535 16.3403C32.2535 13.5515 28.4152 13.3746 28.4152 12.144C28.4152 11.7067 28.9422 11.2275 30.0357 11.2275C31.2694 11.2275 32.276 11.7354 32.276 11.7354L32.7631 9.49241C32.7631 9.49241 31.6679 9.02161 30.1233 9.02161V9.02161ZM8.0584 9.19089L8 9.52944C8 9.52944 9.01461 9.71448 9.92844 10.0836C11.1051 10.5068 11.1889 10.7532 11.387 11.5185L13.5464 19.8132H16.4411L20.9005 9.19089H18.0125L15.147 16.413L13.9778 10.2912C13.8705 9.59056 13.3274 9.19089 12.6625 9.19089H8.0584V9.19089ZM22.0618 9.19089L19.7963 19.8132H22.5502L24.8078 9.19089H22.0618V9.19089ZM37.4216 9.19089C36.7575 9.19089 36.4057 9.54516 36.1475 10.1642L32.1128 19.8132H35.0008L35.5596 18.205H39.078L39.4178 19.8132H41.966L39.7429 9.19089H37.4216V9.19089ZM37.7972 12.0607L38.6533 16.0467H36.3599L37.7972 12.0607V12.0607Z" fill="white"/>
<defs>
<linearGradient id="paint0_linear" x1="69.4151" y1="-30.0072" x2="-2.13238" y2="39.1041" gradientUnits="userSpaceOnUse">
<stop stop-color="#FFCCAF"/>
<stop offset="1" stop-color="#FF9345"/>
</linearGradient>
</defs>
</svg>
