<svg width="50" height="30" viewBox="0 0 50 30" fill="none" xmlns="http://www.w3.org/2000/svg">
<rect width="50" height="30" rx="8" fill="url(#paint0_linear)"/>
<g clip-path="url(#clip0)">
<path fill-rule="evenodd" clip-rule="evenodd" d="M34.1645 9.69747L25.7201 5.32772C25.3319 5.12725 24.8683 5.12725 24.4801 5.32772L16.0356 9.69747C15.4952 9.97943 15.2193 10.5869 15.3664 11.1707C15.5136 11.7546 16.046 12.1651 16.6578 12.1664H33.5467C34.1586 12.1651 34.691 11.7546 34.8382 11.1707C34.9853 10.5869 34.7094 9.97943 34.169 9.69747H34.1645ZM16.6534 10.8554L25.0978 6.4857L33.5423 10.8554H16.6534ZM33.5423 23.0907C33.9105 23.0907 34.209 23.3842 34.209 23.7462C34.209 24.1082 33.9105 24.4017 33.5423 24.4017H16.6534C16.2852 24.4017 15.9867 24.1082 15.9867 23.7462C15.9867 23.3842 16.2852 23.0907 16.6534 23.0907H33.5423ZM33.5423 14.3512H32.209V20.9059H33.5423C33.9105 20.9059 34.209 21.1993 34.209 21.5613C34.209 21.9233 33.9105 22.2168 33.5423 22.2168H16.6534C16.2852 22.2168 15.9867 21.9233 15.9867 21.5613C15.9867 21.1993 16.2852 20.9059 16.6534 20.9059H17.5423V14.3512H16.6534C16.2852 14.3512 15.9867 14.0578 15.9867 13.6958C15.9867 13.3338 16.2852 13.0403 16.6534 13.0403H33.5423C33.9105 13.0403 34.209 13.3338 34.209 13.6958C34.209 14.0578 33.9105 14.3512 33.5423 14.3512ZM23.3201 14.3512V20.9059H24.209V14.3512H23.3201ZM21.9867 20.9059V14.3512H21.0978V20.9059H21.9867ZM25.5423 14.3512V20.9059H26.4312V14.3512H25.5423ZM27.7645 14.3512V20.9059H28.6534V14.3512H27.7645ZM18.8756 14.3512V20.9059H19.7645V14.3512H18.8756ZM30.8756 20.9059V14.3512H29.9867V20.9059H30.8756Z" fill="white"/>
</g>
<defs>
<linearGradient id="paint0_linear" x1="60.9738" y1="-6.31389" x2="-6.06297" y2="35.4282" gradientUnits="userSpaceOnUse">
<stop stop-color="#FF7B7B"/>
<stop offset="1" stop-color="#FFC6C6"/>
</linearGradient>
<clipPath id="clip0">
<rect width="20" height="21.4286" fill="white" transform="translate(15 5)"/>
</clipPath>
</defs>
</svg>
