<svg width="100" height="60" viewBox="0 0 100 60" fill="none" xmlns="http://www.w3.org/2000/svg">
<rect width="100" height="60" rx="16" fill="white"/>
<rect width="100" height="60" rx="16" fill="black"/>
<path fill-rule="evenodd" clip-rule="evenodd" d="M63.7365 20.2061L60.1707 23.1264C59.8464 23.3921 59.4045 23.333 59.1686 23.0084C57.3415 20.7666 54.5126 19.4981 51.4184 19.4981C47.9704 19.4981 45.8193 21.0027 45.8193 23.1264C45.7604 24.9258 47.4402 25.8405 52.5972 26.9614C59.11 28.3479 62.0861 31.0616 62.0861 35.634C62.0861 41.3569 57.4299 45.5751 50.1512 46.047L49.444 49.4396C49.3851 49.7639 49.0903 50 48.7368 50H43.1377C42.6661 50 42.3421 49.5576 42.4305 49.1149L43.3144 45.339C39.7191 44.3067 36.8016 42.3007 35.1221 39.8523C34.9159 39.5279 34.9748 39.1148 35.2693 38.879L39.1592 35.8111C39.4835 35.5455 39.9548 35.634 40.1907 35.9587C42.2534 38.8494 45.4361 40.5606 49.2673 40.5606C52.7153 40.5606 55.3085 38.8793 55.3085 36.4604C55.3085 34.6019 54.0119 33.7464 49.621 32.8321C42.1359 31.2097 39.1595 28.4662 39.1595 23.8938C39.1595 18.5841 43.6093 14.6017 50.3283 14.0707L51.0649 10.5604C51.1238 10.2361 51.4187 10 51.7721 10H57.2829C57.725 10 58.0785 10.4129 57.9901 10.8556L57.1356 14.779C60.0237 15.6641 62.381 17.2569 63.8546 19.2334C64.0903 19.5276 64.0313 19.97 63.7365 20.2061Z" fill="white"/>
</svg>
