<svg xmlns="http://www.w3.org/2000/svg" width="149" height="32" fill="none">
  <g clip-path="url(#a)">
    <path fill="#266BD7" d="M15.908 0c6.384 0 11.554 5.19 11.554 11.6 0 6.41-5.18 11.6-11.554 11.6h-3.172c5.61 0 12.024-6.302 9.762-13.537a2.717 2.717 0 0 0-.078-.265 3.884 3.884 0 0 0-.177-.472c-1.047-2.467-3.485-4.217-6.325-4.217H6.35c-.607 0-1.106.462-1.165 1.061C5.216 2.055 7.026 0 10.738 0h5.17Z"/>
    <path fill="#266BD7" d="M22.498 9.663C24.76 16.898 18.356 23.2 12.736 23.2h-1.009l-6.56 6.793-.696.707a2.334 2.334 0 0 1-1.655.688 2.345 2.345 0 0 1-2.34-2.35V24.93c0 1.052 1.107 2.015 2.624.442l3.075-3.185 3.554-3.686h6.17c.127 0 .254-.01.371-.01 3.614-.197 6.492-3.205 6.492-6.881a6.074 6.074 0 0 0-.264-1.947Z"/>
    <path fill="#266BD7" d="M5.177 0h5.562C7.028 0 5.216 2.055 5.187 5.77c-.01.04-.01.08-.01.118v15.857a.595.595 0 0 0 1.009.432L3.11 25.362c-1.518 1.573-2.624.61-2.624-.442V2.359A2.345 2.345 0 0 1 2.827.01h2.35V0Z"/>
    <path fill="url(#b)" d="M15.908 0c6.384 0 11.554 5.19 11.554 11.6 0 6.41-5.18 11.6-11.554 11.6h-3.172c5.61 0 12.024-6.302 9.762-13.537a2.717 2.717 0 0 0-.078-.265 3.884 3.884 0 0 0-.177-.472c-1.047-2.467-3.485-4.217-6.325-4.217H6.35c-.607 0-1.106.462-1.165 1.061C5.216 2.055 7.026 0 10.738 0h5.17Z"/>
    <path fill="url(#c)" d="M15.908 0c6.384 0 11.554 5.19 11.554 11.6 0 6.41-5.18 11.6-11.554 11.6h-3.172c5.61 0 12.024-6.302 9.762-13.537a2.717 2.717 0 0 0-.078-.265 3.884 3.884 0 0 0-.177-.472c-1.047-2.467-3.485-4.217-6.325-4.217H6.35c-.607 0-1.106.462-1.165 1.061C5.216 2.055 7.026 0 10.738 0h5.17Z"/>
    <path fill="url(#d)" d="M15.908 0c6.384 0 11.554 5.19 11.554 11.6 0 6.41-5.18 11.6-11.554 11.6h-3.172c5.61 0 12.024-6.302 9.762-13.537a2.717 2.717 0 0 0-.078-.265 3.884 3.884 0 0 0-.177-.472c-1.047-2.467-3.485-4.217-6.325-4.217H6.35c-.607 0-1.106.462-1.165 1.061C5.216 2.055 7.026 0 10.738 0h5.17Z"/>
    <path fill="url(#e)" d="M15.908 0c6.384 0 11.554 5.19 11.554 11.6 0 6.41-5.18 11.6-11.554 11.6h-3.172c5.61 0 12.024-6.302 9.762-13.537a2.717 2.717 0 0 0-.078-.265 3.884 3.884 0 0 0-.177-.472c-1.047-2.467-3.485-4.217-6.325-4.217H6.35c-.607 0-1.106.462-1.165 1.061C5.216 2.055 7.026 0 10.738 0h5.17Z"/>
    <path fill="url(#f)" d="M15.908 0c6.384 0 11.554 5.19 11.554 11.6 0 6.41-5.18 11.6-11.554 11.6h-3.172c5.61 0 12.024-6.302 9.762-13.537a2.717 2.717 0 0 0-.078-.265 3.884 3.884 0 0 0-.177-.472c-1.047-2.467-3.485-4.217-6.325-4.217H6.35c-.607 0-1.106.462-1.165 1.061C5.216 2.055 7.026 0 10.738 0h5.17Z"/>
    <path fill="url(#g)" d="M22.498 9.663C24.76 16.898 18.356 23.2 12.736 23.2h-1.009l-6.56 6.793-.696.707a2.334 2.334 0 0 1-1.655.688 2.345 2.345 0 0 1-2.34-2.35V24.93c0 1.052 1.107 2.015 2.624.442l3.075-3.185 3.554-3.686h6.17c.127 0 .254-.01.371-.01 3.614-.197 6.492-3.205 6.492-6.881a6.074 6.074 0 0 0-.264-1.947Z"/>
    <path fill="url(#h)" d="M22.498 9.663C24.76 16.898 18.356 23.2 12.736 23.2h-1.009l-6.56 6.793-.696.707a2.334 2.334 0 0 1-1.655.688 2.345 2.345 0 0 1-2.34-2.35V24.93c0 1.052 1.107 2.015 2.624.442l3.075-3.185 3.554-3.686h6.17c.127 0 .254-.01.371-.01 3.614-.197 6.492-3.205 6.492-6.881a6.074 6.074 0 0 0-.264-1.947Z"/>
    <path fill="url(#i)" d="M22.498 9.663C24.76 16.898 18.356 23.2 12.736 23.2h-1.009l-6.56 6.793-.696.707a2.334 2.334 0 0 1-1.655.688 2.345 2.345 0 0 1-2.34-2.35V24.93c0 1.052 1.107 2.015 2.624.442l3.075-3.185 3.554-3.686h6.17c.127 0 .254-.01.371-.01 3.614-.197 6.492-3.205 6.492-6.881a6.074 6.074 0 0 0-.264-1.947Z"/>
    <path fill="url(#j)" d="M22.498 9.663C24.76 16.898 18.356 23.2 12.736 23.2h-1.009l-6.56 6.793-.696.707a2.334 2.334 0 0 1-1.655.688 2.345 2.345 0 0 1-2.34-2.35V24.93c0 1.052 1.107 2.015 2.624.442l3.075-3.185 3.554-3.686h6.17c.127 0 .254-.01.371-.01 3.614-.197 6.492-3.205 6.492-6.881a6.074 6.074 0 0 0-.264-1.947Z"/>
    <path fill="url(#k)" d="M5.177 0h5.562C7.028 0 5.216 2.055 5.187 5.77c-.01.04-.01.08-.01.118v15.857a.595.595 0 0 0 1.009.432L3.11 25.362c-1.518 1.573-2.624.61-2.624-.442V2.359A2.345 2.345 0 0 1 2.827.01h2.35V0Z"/>
    <path fill="url(#l)" d="M5.177 0h5.562C7.028 0 5.216 2.055 5.187 5.77c-.01.04-.01.08-.01.118v15.857a.595.595 0 0 0 1.009.432L3.11 25.362c-1.518 1.573-2.624.61-2.624-.442V2.359A2.345 2.345 0 0 1 2.827.01h2.35V0Z"/>
    <path fill="url(#m)" d="M5.177 0h5.562C7.028 0 5.216 2.055 5.187 5.77c-.01.04-.01.08-.01.118v15.857a.595.595 0 0 0 1.009.432L3.11 25.362c-1.518 1.573-2.624.61-2.624-.442V2.359A2.345 2.345 0 0 1 2.827.01h2.35V0Z"/>
    <path fill="url(#n)" d="M5.177 0h5.562C7.028 0 5.216 2.055 5.187 5.77c-.01.04-.01.08-.01.118v15.857a.595.595 0 0 0 1.009.432L3.11 25.362c-1.518 1.573-2.624.61-2.624-.442V2.359A2.345 2.345 0 0 1 2.827.01h2.35V0Z"/>
    <path fill="url(#o)" d="M5.177 0h5.562C7.028 0 5.216 2.055 5.187 5.77c-.01.04-.01.08-.01.118v15.857a.595.595 0 0 0 1.009.432L3.11 25.362c-1.518 1.573-2.624.61-2.624-.442V2.359A2.345 2.345 0 0 1 2.827.01h2.35V0Z"/>
    <path fill="url(#p)" d="M5.177 0h5.562C7.028 0 5.216 2.055 5.187 5.77c-.01.04-.01.08-.01.118v15.857a.595.595 0 0 0 1.009.432L3.11 25.362c-1.518 1.573-2.624.61-2.624-.442V2.359A2.345 2.345 0 0 1 2.827.01h2.35V0Z"/>
    <path fill="url(#q)" d="M5.177 0h5.562C7.028 0 5.216 2.055 5.187 5.77c-.01.04-.01.08-.01.118v15.857a.595.595 0 0 0 1.009.432L3.11 25.362c-1.518 1.573-2.624.61-2.624-.442V2.359A2.345 2.345 0 0 1 2.827.01h2.35V0Z"/>
    <path fill="url(#r)" d="M5.177 0h5.562C7.028 0 5.216 2.055 5.187 5.77c-.01.04-.01.08-.01.118v15.857a.595.595 0 0 0 1.009.432L3.11 25.362c-1.518 1.573-2.624.61-2.624-.442V2.359A2.345 2.345 0 0 1 2.827.01h2.35V0Z"/>
    <path fill="url(#s)" d="M5.177 0h5.562C7.028 0 5.216 2.055 5.187 5.77c-.01.04-.01.08-.01.118v15.857a.595.595 0 0 0 1.009.432L3.11 25.362c-1.518 1.573-2.624.61-2.624-.442V2.359A2.345 2.345 0 0 1 2.827.01h2.35V0Z"/>
    <path fill="url(#t)" d="M5.177 0h5.562C7.028 0 5.216 2.055 5.187 5.77c-.01.04-.01.08-.01.118v15.857a.595.595 0 0 0 1.009.432L3.11 25.362c-1.518 1.573-2.624.61-2.624-.442V2.359A2.345 2.345 0 0 1 2.827.01h2.35V0Z"/>
    <path fill="url(#u)" d="M10.738 0C7.82.639 7.144 2.87 7.154 4.709h-.803c-.607 0-1.106.462-1.165 1.061C5.216 2.055 7.017 0 10.738 0Z"/>
    <path fill="url(#v)" d="M6.185 22.177 3.11 25.362c-1.087 1.121-1.958.944-2.36.374a.934.934 0 0 0 1.234.138c.98-.669 2.194-2.979 3.202-5.299v1.16c0 .334.264.6.597.6.157.01.294-.05.402-.158Z"/>
    <path fill="url(#w)" d="M10.738 0C7.82.639 7.144 2.87 7.154 4.709h-.803c-.607 0-1.106.462-1.165 1.061C5.216 2.055 7.017 0 10.738 0Z"/>
    <path fill="url(#x)" d="M12.745 23.2c.617 0 6.365-.964 7.638-6.37a6.893 6.893 0 0 0 2.409-5.23c0-.669-.098-1.327-.284-1.937C24.76 16.898 18.356 23.2 12.746 23.2Z"/>
    <path fill="url(#y)" d="M6.185 22.177 3.11 25.362c-1.087 1.121-1.958.944-2.36.374a.934.934 0 0 0 1.234.138c.98-.669 2.194-2.979 3.202-5.299v1.16c0 .334.264.6.597.6.157.01.294-.05.402-.158Z"/>
    <path fill="url(#z)" d="M10.738 0C7.82.639 7.144 2.87 7.154 4.709h-.803c-.607 0-1.106.462-1.165 1.061C5.216 2.055 7.017 0 10.738 0Z"/>
    <path fill="url(#A)" d="M6.185 22.177 3.11 25.362c-1.087 1.121-1.958.944-2.36.374a.934.934 0 0 0 1.234.138c.98-.669 2.194-2.979 3.202-5.299v1.16c0 .334.264.6.597.6.157.01.294-.05.402-.158Z"/>
    <path fill="url(#B)" d="M15.908 0c6.384 0 11.554 5.19 11.554 11.6 0 6.41-5.18 11.6-11.554 11.6h-3.172c5.61 0 12.024-6.302 9.762-13.537a2.717 2.717 0 0 0-.078-.265 3.884 3.884 0 0 0-.177-.472c-1.047-2.467-3.485-4.217-6.325-4.217H6.35c-.607 0-1.106.462-1.165 1.061C5.216 2.055 7.026 0 10.738 0h5.17Z"/>
    <path fill="url(#C)" d="M15.908 0c6.384 0 11.554 5.19 11.554 11.6 0 6.41-5.18 11.6-11.554 11.6h-3.172c5.61 0 12.024-6.302 9.762-13.537a2.717 2.717 0 0 0-.078-.265 3.884 3.884 0 0 0-.177-.472c-1.047-2.467-3.485-4.217-6.325-4.217H6.35c-.607 0-1.106.462-1.165 1.061C5.216 2.055 7.026 0 10.738 0h5.17Z"/>
    <path fill="url(#D)" d="M22.498 9.663C24.76 16.898 18.356 23.2 12.736 23.2h-1.009l-6.56 6.793-.696.707a2.334 2.334 0 0 1-1.655.688 2.345 2.345 0 0 1-2.34-2.35V24.93c0 1.052 1.107 2.015 2.624.442l3.075-3.185 3.554-3.686h6.17c.127 0 .254-.01.371-.01 3.614-.197 6.492-3.205 6.492-6.881a6.074 6.074 0 0 0-.264-1.947Z"/>
    <path fill="url(#E)" d="M22.498 9.663C24.76 16.898 18.356 23.2 12.736 23.2h-1.009l-6.56 6.793-.696.707a2.334 2.334 0 0 1-1.655.688 2.345 2.345 0 0 1-2.34-2.35V24.93c0 1.052 1.107 2.015 2.624.442l3.075-3.185 3.554-3.686h6.17c.127 0 .254-.01.371-.01 3.614-.197 6.492-3.205 6.492-6.881a6.074 6.074 0 0 0-.264-1.947Z"/>
    <path fill="url(#F)" d="M22.498 9.663C24.76 16.898 18.356 23.2 12.736 23.2h-1.009l-6.56 6.793-.696.707a2.334 2.334 0 0 1-1.655.688 2.345 2.345 0 0 1-2.34-2.35V24.93c0 1.052 1.107 2.015 2.624.442l3.075-3.185 3.554-3.686h6.17c.127 0 .254-.01.371-.01 3.614-.197 6.492-3.205 6.492-6.881a6.074 6.074 0 0 0-.264-1.947Z"/>
    <path fill="url(#G)" d="M5.177 0h5.562C7.028 0 5.216 2.055 5.187 5.77c-.01.04-.01.08-.01.118v15.857a.595.595 0 0 0 1.009.432L3.11 25.362c-1.518 1.573-2.624.61-2.624-.442V2.359A2.345 2.345 0 0 1 2.827.01h2.35V0Z"/>
    <path fill="url(#H)" d="M5.177 0h5.562C7.028 0 5.216 2.055 5.187 5.77c-.01.04-.01.08-.01.118v15.857a.595.595 0 0 0 1.009.432L3.11 25.362c-1.518 1.573-2.624.61-2.624-.442V2.359A2.345 2.345 0 0 1 2.827.01h2.35V0Z"/>
    <path fill="url(#I)" d="M12.745 23.2c.617 0 6.365-.964 7.638-6.37a6.893 6.893 0 0 0 2.409-5.23c0-.669-.098-1.327-.284-1.937C24.76 16.898 18.356 23.2 12.746 23.2Z"/>
    <path fill="url(#J)" d="M12.745 23.2h-1.008s3.79-.806 5.219-4.788c3.29-.501 5.826-3.371 5.826-6.812 0-.669-.098-1.327-.284-1.937C24.76 16.898 18.356 23.2 12.745 23.2Z"/>
    <path fill="url(#K)" d="M9.915 4.709H6.351c-.607 0-1.106.462-1.165 1.061C5.216 2.055 7.026 0 10.738 0h.98c-1.391 1.317-1.773 3.156-1.803 4.709Z"/>
    <path fill="url(#L)" d="M.486 24.93v-2.762c1.704-.59 3.574-1.642 4.69-3.47v3.057a.595.595 0 0 0 1.009.432L3.11 25.372c-1.518 1.573-2.624.6-2.624-.442Z"/>
    <path fill="#164ED0" d="M36.314 21V10.5h4.545c.94 0 1.75.155 2.43.465.68.3 1.205.735 1.575 1.305.37.57.555 1.25.555 2.04 0 .78-.185 1.455-.555 2.025-.37.57-.895 1.01-1.575 1.32-.68.3-1.49.45-2.43.45h-3.195l1.08-1.095V21h-2.43Zm2.43-3.72-1.08-1.155h3.06c.75 0 1.31-.16 1.68-.48.37-.32.555-.765.555-1.335 0-.58-.185-1.03-.555-1.35-.37-.32-.93-.48-1.68-.48h-3.06l1.08-1.155v5.955Zm8.23 3.72v-8.07h2.235v2.28l-.315-.66c.24-.57.625-1 1.155-1.29.53-.3 1.175-.45 1.935-.45v2.16a2.74 2.74 0 0 0-.27-.015 2.058 2.058 0 0 0-.255-.015c-.64 0-1.16.185-1.56.555-.39.36-.585.925-.585 1.695V21h-2.34Zm6.416 0v-8.07h2.34V21h-2.34Zm1.17-9.195c-.43 0-.78-.125-1.05-.375s-.405-.56-.405-.93.135-.68.405-.93.62-.375 1.05-.375c.43 0 .78.12 1.05.36.27.23.405.53.405.9 0 .39-.135.715-.405.975-.26.25-.61.375-1.05.375Zm13.677 1.005c.64 0 1.205.13 1.695.39.5.25.89.64 1.17 1.17.29.52.435 1.19.435 2.01V21h-2.34v-4.26c0-.65-.135-1.13-.405-1.44-.27-.31-.65-.465-1.14-.465-.34 0-.645.08-.915.24-.27.15-.48.38-.63.69-.15.31-.225.705-.225 1.185V21h-2.34v-4.26c0-.65-.135-1.13-.405-1.44-.26-.31-.635-.465-1.125-.465-.34 0-.645.08-.915.24-.27.15-.48.38-.63.69-.15.31-.225.705-.225 1.185V21h-2.34v-8.07h2.235v2.205l-.42-.645c.28-.55.675-.965 1.185-1.245.52-.29 1.11-.435 1.77-.435.74 0 1.385.19 1.935.57.56.37.93.94 1.11 1.71l-.825-.225c.27-.63.7-1.13 1.29-1.5.6-.37 1.285-.555 2.055-.555Zm9.46 8.31c-.92 0-1.73-.18-2.43-.54-.69-.36-1.224-.85-1.604-1.47-.38-.63-.57-1.345-.57-2.145 0-.81.185-1.525.555-2.145a3.97 3.97 0 0 1 1.545-1.47c.65-.36 1.385-.54 2.205-.54.79 0 1.5.17 2.13.51.64.33 1.145.81 1.515 1.44.37.62.555 1.365.555 2.235 0 .09-.005.195-.015.315l-.03.315h-6.555V16.26h5.325l-.9.405c0-.42-.085-.785-.255-1.095a1.81 1.81 0 0 0-.705-.72c-.3-.18-.65-.27-1.05-.27s-.755.09-1.065.27c-.3.17-.535.415-.705.735-.17.31-.255.68-.255 1.11v.36c0 .44.095.83.285 1.17.2.33.475.585.825.765.36.17.78.255 1.26.255.43 0 .805-.065 1.125-.195.33-.13.63-.325.9-.585l1.245 1.35c-.37.42-.835.745-1.395.975-.56.22-1.205.33-1.935.33Zm14.972.06c-.83 0-1.6-.135-2.31-.405-.7-.27-1.31-.65-1.83-1.14a5.353 5.353 0 0 1-1.2-1.725c-.28-.66-.42-1.38-.42-2.16 0-.78.14-1.5.42-2.16.29-.66.695-1.235 1.215-1.725.52-.49 1.13-.87 1.83-1.14.7-.27 1.46-.405 2.28-.405.83 0 1.59.135 2.28.405.7.27 1.305.65 1.815 1.14.52.49.925 1.065 1.215 1.725.29.65.435 1.37.435 2.16 0 .78-.145 1.505-.435 2.175a5.243 5.243 0 0 1-1.215 1.725c-.51.48-1.115.855-1.815 1.125-.69.27-1.445.405-2.265.405Zm-.015-2.07c.47 0 .9-.08 1.29-.24a3.06 3.06 0 0 0 1.74-1.755c.17-.41.255-.865.255-1.365s-.085-.955-.255-1.365a3.06 3.06 0 0 0-.69-1.065c-.29-.3-.635-.53-1.035-.69-.4-.16-.835-.24-1.305-.24s-.905.08-1.305.24c-.39.16-.735.39-1.035.69-.3.3-.535.655-.705 1.065-.16.41-.24.865-.24 1.365 0 .49.08.945.24 1.365.17.41.4.765.69 1.065.3.3.65.53 1.05.69.4.16.835.24 1.305.24Zm12.176 2.01c-.68 0-1.275-.15-1.785-.45-.51-.3-.91-.755-1.2-1.365-.28-.62-.42-1.4-.42-2.34 0-.95.135-1.73.405-2.34.27-.61.66-1.065 1.17-1.365.51-.3 1.12-.45 1.83-.45.76 0 1.44.175 2.04.525.61.34 1.09.82 1.44 1.44.36.62.54 1.35.54 2.19 0 .85-.18 1.585-.54 2.205-.35.62-.83 1.1-1.44 1.44-.6.34-1.28.51-2.04.51Zm-4.77 2.79V12.93h2.235v1.65l-.045 2.4.15 2.385v4.545h-2.34Zm4.365-4.71c.39 0 .735-.09 1.035-.27.31-.18.555-.435.735-.765.19-.34.285-.74.285-1.2 0-.47-.095-.87-.285-1.2a1.935 1.935 0 0 0-.735-.765c-.3-.18-.645-.27-1.035-.27-.39 0-.74.09-1.05.27-.31.18-.555.435-.735.765-.18.33-.27.73-.27 1.2 0 .46.09.86.27 1.2.18.33.425.585.735.765.31.18.66.27 1.05.27Zm5.991 1.8v-8.07h2.34V21h-2.34Zm1.17-9.195c-.43 0-.78-.125-1.05-.375s-.405-.56-.405-.93.135-.68.405-.93.62-.375 1.05-.375c.43 0 .78.12 1.05.36.27.23.405.53.405.9 0 .39-.135.715-.405.975-.26.25-.61.375-1.05.375Zm8.247 1.005c.64 0 1.21.13 1.71.39.51.25.91.64 1.2 1.17.29.52.435 1.19.435 2.01V21h-2.34v-4.26c0-.65-.145-1.13-.435-1.44-.28-.31-.68-.465-1.2-.465-.37 0-.705.08-1.005.24-.29.15-.52.385-.69.705-.16.32-.24.73-.24 1.23V21h-2.34v-8.07h2.235v2.235l-.42-.675c.29-.54.705-.955 1.245-1.245.54-.29 1.155-.435 1.845-.435Zm5.466 8.19v-8.07h2.34V21h-2.34Zm1.17-9.195c-.43 0-.78-.125-1.05-.375s-.405-.56-.405-.93.135-.68.405-.93.62-.375 1.05-.375c.43 0 .78.12 1.05.36.27.23.405.53.405.9 0 .39-.135.715-.405.975-.26.25-.61.375-1.05.375Zm7.182 9.315c-.86 0-1.625-.18-2.295-.54a4.204 4.204 0 0 1-1.575-1.47c-.38-.63-.57-1.345-.57-2.145 0-.81.19-1.525.57-2.145.39-.63.915-1.12 1.575-1.47.67-.36 1.435-.54 2.295-.54.85 0 1.61.18 2.28.54.67.35 1.195.835 1.575 1.455.38.62.57 1.34.57 2.16 0 .8-.19 1.515-.57 2.145a4.06 4.06 0 0 1-1.575 1.47c-.67.36-1.43.54-2.28.54Zm0-1.92c.39 0 .74-.09 1.05-.27.31-.18.555-.435.735-.765.18-.34.27-.74.27-1.2 0-.47-.09-.87-.27-1.2a1.935 1.935 0 0 0-.735-.765c-.31-.18-.66-.27-1.05-.27s-.74.09-1.05.27c-.31.18-.56.435-.75.765-.18.33-.27.73-.27 1.2 0 .46.09.86.27 1.2.19.33.44.585.75.765.31.18.66.27 1.05.27Zm10.894-6.39c.64 0 1.21.13 1.71.39.51.25.91.64 1.2 1.17.29.52.435 1.19.435 2.01V21h-2.34v-4.26c0-.65-.145-1.13-.435-1.44-.28-.31-.68-.465-1.2-.465-.37 0-.705.08-1.005.24-.29.15-.52.385-.69.705-.16.32-.24.73-.24 1.23V21h-2.34v-8.07h2.235v2.235l-.42-.675c.29-.54.705-.955 1.245-1.245.54-.29 1.155-.435 1.845-.435Z"/>
  </g>
  <defs>
    <linearGradient id="b" x1="-22.223" x2="29.215" y1="-8.162" y2="18.408" gradientUnits="userSpaceOnUse">
      <stop stop-color="#262FD6"/>
      <stop offset="1" stop-color="#2657D7" stop-opacity="0"/>
    </linearGradient>
    <linearGradient id="c" x1="-9.431" x2="27.213" y1="-6.416" y2="19.188" gradientUnits="userSpaceOnUse">
      <stop stop-color="#262FD6"/>
      <stop offset="1" stop-color="#2657D7" stop-opacity="0"/>
    </linearGradient>
    <linearGradient id="d" x1="66.268" x2="1.725" y1="31.359" y2="6.48" gradientUnits="userSpaceOnUse">
      <stop stop-color="#262FD6"/>
      <stop offset="1" stop-color="#2657D7" stop-opacity="0"/>
    </linearGradient>
    <linearGradient id="e" x1="35.322" x2="14.898" y1="-18.124" y2="11.166" gradientUnits="userSpaceOnUse">
      <stop stop-color="#262FD6"/>
      <stop offset="1" stop-color="#2657D7" stop-opacity="0"/>
    </linearGradient>
    <linearGradient id="f" x1="58.418" x2="15.508" y1="-14.051" y2="10.485" gradientUnits="userSpaceOnUse">
      <stop stop-color="#260075"/>
      <stop offset="1" stop-color="#260076" stop-opacity="0"/>
    </linearGradient>
    <linearGradient id="g" x1="43.096" x2="-5.521" y1="3.975" y2="30.473" gradientUnits="userSpaceOnUse">
      <stop stop-color="#265AD7"/>
      <stop offset="1" stop-color="#2647D7" stop-opacity="0"/>
    </linearGradient>
    <linearGradient id="h" x1="45.66" x2=".287" y1="45.051" y2="11.974" gradientUnits="userSpaceOnUse">
      <stop stop-color="#265AD7"/>
      <stop offset="1" stop-color="#2647D7" stop-opacity="0"/>
    </linearGradient>
    <linearGradient id="i" x1="32.357" x2="6.281" y1="47.31" y2="13.13" gradientUnits="userSpaceOnUse">
      <stop stop-color="#265AD7"/>
      <stop offset="1" stop-color="#2647D7" stop-opacity="0"/>
    </linearGradient>
    <linearGradient id="j" x1="25.177" x2="9.88" y1="50.522" y2="16.226" gradientUnits="userSpaceOnUse">
      <stop stop-color="#265AD7"/>
      <stop offset="1" stop-color="#2647D7" stop-opacity="0"/>
    </linearGradient>
    <linearGradient id="k" x1="16.545" x2="2.64" y1="40.56" y2="5.283" gradientUnits="userSpaceOnUse">
      <stop stop-color="#2637D7"/>
      <stop offset="1" stop-color="#265FD7" stop-opacity="0"/>
    </linearGradient>
    <linearGradient id="l" x1="22.858" x2="-7.374" y1="39.703" y2="-7.301" gradientUnits="userSpaceOnUse">
      <stop stop-color="#2637D7"/>
      <stop offset="1" stop-color="#265FD7" stop-opacity="0"/>
    </linearGradient>
    <linearGradient id="m" x1="-35.848" x2="7.441" y1="-13.082" y2="13.779" gradientUnits="userSpaceOnUse">
      <stop stop-color="#2637D7"/>
      <stop offset="1" stop-color="#265FD7" stop-opacity="0"/>
    </linearGradient>
    <linearGradient id="n" x1="35.928" x2="3.367" y1="46.572" y2="10.518" gradientUnits="userSpaceOnUse">
      <stop stop-color="#2637D7"/>
      <stop offset="1" stop-color="#265FD7" stop-opacity="0"/>
    </linearGradient>
    <linearGradient id="o" x1="-37.231" x2="4.778" y1="-22.954" y2="11.825" gradientUnits="userSpaceOnUse">
      <stop stop-color="#2637D7"/>
      <stop offset="1" stop-color="#265FD7" stop-opacity="0"/>
    </linearGradient>
    <linearGradient id="p" x1="-19.633" x2="7.556" y1="25.78" y2="10.031" gradientUnits="userSpaceOnUse">
      <stop stop-color="#2637D7"/>
      <stop offset="1" stop-color="#265FD7" stop-opacity="0"/>
    </linearGradient>
    <linearGradient id="q" x1="-27.311" x2="6.08" y1="8.25" y2="13.056" gradientUnits="userSpaceOnUse">
      <stop stop-color="#2637D7"/>
      <stop offset="1" stop-color="#265FD7" stop-opacity="0"/>
    </linearGradient>
    <linearGradient id="r" x1="-20.953" x2="5.748" y1="34.973" y2="9.805" gradientUnits="userSpaceOnUse">
      <stop stop-color="#2637D7"/>
      <stop offset="1" stop-color="#265FD7" stop-opacity="0"/>
    </linearGradient>
    <linearGradient id="s" x1="12.447" x2="5.625" y1="-17.006" y2="4.607" gradientUnits="userSpaceOnUse">
      <stop stop-color="#2637D7"/>
      <stop offset="1" stop-color="#265FD7" stop-opacity="0"/>
    </linearGradient>
    <linearGradient id="t" x1="-41.285" x2="6.872" y1="33.837" y2="10.999" gradientUnits="userSpaceOnUse">
      <stop stop-color="#2637D7"/>
      <stop offset="1" stop-color="#265FD7" stop-opacity="0"/>
    </linearGradient>
    <linearGradient id="u" x1="-3.665" x2="10.309" y1="10.789" y2=".614" gradientUnits="userSpaceOnUse">
      <stop stop-color="#2625D6"/>
      <stop offset="1" stop-color="#265BD7" stop-opacity="0"/>
    </linearGradient>
    <linearGradient id="v" x1="17.179" x2="-1.291" y1="26.722" y2="22.317" gradientUnits="userSpaceOnUse">
      <stop stop-color="#263FD7"/>
      <stop offset="1" stop-color="#265BD7" stop-opacity="0"/>
    </linearGradient>
    <linearGradient id="w" x1="-7.854" x2="7.808" y1="12.665" y2="2.499" gradientUnits="userSpaceOnUse">
      <stop stop-color="#2613BD"/>
      <stop offset="1" stop-color="#2661D7" stop-opacity="0"/>
    </linearGradient>
    <linearGradient id="x" x1="54.534" x2="13.71" y1="11.212" y2="16.984" gradientUnits="userSpaceOnUse">
      <stop stop-color="#265ED7"/>
      <stop offset="1" stop-color="#2646D7" stop-opacity="0"/>
    </linearGradient>
    <linearGradient id="y" x1="38.123" x2="-.949" y1="29.748" y2="22.664" gradientUnits="userSpaceOnUse">
      <stop stop-color="#261FD0"/>
      <stop offset="1" stop-color="#264ED7" stop-opacity="0"/>
    </linearGradient>
    <linearGradient id="z" x1="-3.665" x2="10.309" y1="10.789" y2=".614" gradientUnits="userSpaceOnUse">
      <stop stop-color="#2625D6"/>
      <stop offset="1" stop-color="#265BD7" stop-opacity="0"/>
    </linearGradient>
    <linearGradient id="A" x1="17.179" x2="-1.291" y1="26.722" y2="22.317" gradientUnits="userSpaceOnUse">
      <stop stop-color="#263FD7"/>
      <stop offset="1" stop-color="#265BD7" stop-opacity="0"/>
    </linearGradient>
    <linearGradient id="B" x1="37.853" x2="14.656" y1="49.162" y2="6.078" gradientUnits="userSpaceOnUse">
      <stop stop-color="#FFF5FF"/>
      <stop offset="1" stop-color="#2652C7" stop-opacity="0"/>
    </linearGradient>
    <linearGradient id="C" x1="70.292" x2="15.17" y1="10.904" y2="11.574" gradientUnits="userSpaceOnUse">
      <stop stop-color="#FFF5FF"/>
      <stop offset="1" stop-color="#2652C7" stop-opacity="0"/>
    </linearGradient>
    <linearGradient id="D" x1="25.177" x2="9.88" y1="50.522" y2="16.226" gradientUnits="userSpaceOnUse">
      <stop stop-color="#265AD7"/>
      <stop offset="1" stop-color="#2647D7" stop-opacity="0"/>
    </linearGradient>
    <linearGradient id="E" x1="35.605" x2="8.162" y1="33.621" y2="18.284" gradientUnits="userSpaceOnUse">
      <stop stop-color="#260051"/>
      <stop offset="1" stop-color="#260066" stop-opacity="0"/>
    </linearGradient>
    <linearGradient id="F" x1="-20.216" x2="15.206" y1="15.2" y2="20.911" gradientUnits="userSpaceOnUse">
      <stop stop-color="#FFF5FF"/>
      <stop offset="1" stop-color="#2652C7" stop-opacity="0"/>
    </linearGradient>
    <linearGradient id="G" x1="-22.133" x2="6.088" y1="33.508" y2="9.898" gradientUnits="userSpaceOnUse">
      <stop stop-color="#260064"/>
      <stop offset="1" stop-color="#260066" stop-opacity="0"/>
    </linearGradient>
    <linearGradient id="H" x1="33.55" x2="-5.162" y1="-5.648" y2="17.238" gradientUnits="userSpaceOnUse">
      <stop stop-color="#FFF5FF"/>
      <stop offset="1" stop-color="#2652C7" stop-opacity="0"/>
    </linearGradient>
    <linearGradient id="I" x1="34.758" x2="17.571" y1="20.305" y2="16.451" gradientUnits="userSpaceOnUse">
      <stop stop-color="#2609B2"/>
      <stop offset="1" stop-color="#2631C7" stop-opacity="0"/>
    </linearGradient>
    <linearGradient id="J" x1="39.022" x2="11.575" y1="23.529" y2="14.706" gradientUnits="userSpaceOnUse">
      <stop stop-color="#262AB2"/>
      <stop offset="1" stop-color="#2652C7" stop-opacity="0"/>
    </linearGradient>
    <linearGradient id="K" x1=".191" x2="13.116" y1="8.23" y2="-.047" gradientUnits="userSpaceOnUse">
      <stop stop-color="#262AB2"/>
      <stop offset="1" stop-color="#2652C7" stop-opacity="0"/>
    </linearGradient>
    <linearGradient id="L" x1="18.394" x2="-3.787" y1="26.751" y2="20.468" gradientUnits="userSpaceOnUse">
      <stop stop-color="#262AB2"/>
      <stop offset="1" stop-color="#2652C7" stop-opacity="0"/>
    </linearGradient>
    <clipPath id="a">
      <path fill="#fff" d="M0 0h149v32H0z"/>
    </clipPath>
  </defs>
</svg>
