<svg xmlns="http://www.w3.org/2000/svg" width="110" height="60" fill="none">
  <path fill="#F90" d="M0 0h110v60H0z"/>
  <path fill="#fff" fill-rule="evenodd" d="m66.223 35.213-.288-.403c-.782-1.08-1.527-2.108-1.527-4.17V22.95c0-.267.002-.533.003-.796.017-2.948.033-5.638-2.112-7.696C60.459 12.641 57.404 12 55.067 12c-4.57 0-9.67 1.752-10.739 7.558-.113.616.323.939.718 1.03l4.654.517c.436-.022.75-.463.835-.906.399-2 2.029-2.962 3.86-2.962.988 0 2.11.372 2.695 1.282.603.908.593 2.12.585 3.204l-.002.373v.645c-.432.05-.885.096-1.35.145-2.539.264-5.48.569-7.682 1.561-3.007 1.339-5.119 4.062-5.119 8.065 0 5.13 3.142 7.695 7.188 7.695 3.414 0 5.282-.828 7.916-3.588.131.196.25.377.36.547.63.96 1.04 1.587 2.393 2.744.357.196.83.188 1.146-.106.96-.877 2.7-2.432 3.682-3.278.392-.33.323-.866.016-1.313Zm-9.449-2.217c-.762 1.392-1.976 2.244-3.325 2.244-1.84 0-2.92-1.444-2.92-3.58 0-4.204 3.671-4.967 7.143-4.967 0 .252.002.505.004.758.017 1.903.035 3.844-.902 5.545Z" clip-rule="evenodd"/>
  <path fill="#fff" d="M71.963 43.602C67.366 47.126 60.699 49 54.958 49c-8.044 0-15.29-3.088-20.772-8.23-.43-.404-.047-.956.47-.642 5.916 3.576 13.231 5.728 20.786 5.728 5.097 0 10.699-1.098 15.853-3.37.778-.341 1.43.534.668 1.116Z"/>
  <path fill="#fff" d="M68.508 41.148c1.48-.185 4.78-.596 5.368.185.588.78-.647 3.99-1.204 5.437l-.004.01c-.168.436.192.61.572.28 2.467-2.142 3.105-6.633 2.6-7.284-.502-.641-4.815-1.197-7.447.723-.405.298-.335.704.115.65Z"/>
</svg>
