<svg xmlns="http://www.w3.org/2000/svg" width="110" height="60" fill="none">
  <path fill="#27346A" d="M0 0h110v60H0z"/>
  <g clip-path="url(#a)">
    <path fill="#fff" d="M45.525 23.918H41.23a.595.595 0 0 0-.59.5l-1.738 10.939a.356.356 0 0 0 .355.41h2.05a.596.596 0 0 0 .59-.5l.469-2.951a.595.595 0 0 1 .589-.5h1.36c2.83 0 4.462-1.36 4.889-4.055.192-1.179.008-2.105-.548-2.754-.61-.712-1.693-1.089-3.131-1.089Zm.496 3.995c-.235 1.53-1.413 1.53-2.552 1.53h-.648l.455-2.858a.357.357 0 0 1 .353-.3h.297c.776 0 1.508 0 1.886.44.226.261.295.65.209 1.188ZM58.365 27.864h-2.057a.358.358 0 0 0-.353.3l-.091.571-.144-.207c-.445-.642-1.438-.856-2.43-.856-2.273 0-4.214 1.71-4.592 4.107-.197 1.197.083 2.34.766 3.139.627.733 1.524 1.039 2.59 1.039 1.832 0 2.848-1.17 2.848-1.17l-.092.568a.356.356 0 0 0 .353.412h1.853a.596.596 0 0 0 .59-.501l1.112-6.992a.355.355 0 0 0-.353-.41Zm-2.867 3.975c-.198 1.167-1.131 1.95-2.32 1.95-.598 0-1.075-.19-1.382-.55-.304-.358-.42-.867-.323-1.435a2.298 2.298 0 0 1 2.305-1.966c.584 0 1.06.193 1.372.556.314.368.438.88.348 1.445ZM69.32 27.864h-2.066a.6.6 0 0 0-.495.26l-2.85 4.17-1.21-4.007a.598.598 0 0 0-.572-.423h-2.031a.356.356 0 0 0-.34.47l2.277 6.635-2.14 3.001a.355.355 0 0 0 .291.562h2.065c.196 0 .38-.095.49-.255l6.876-9.855a.355.355 0 0 0-.294-.558Z"/>
    <path fill="#179BD7" d="M76.164 23.918h-4.296a.596.596 0 0 0-.589.5l-1.737 10.939a.356.356 0 0 0 .353.41h2.204c.205 0 .38-.148.412-.35l.493-3.101a.595.595 0 0 1 .59-.501h1.359c2.83 0 4.462-1.36 4.89-4.054.192-1.18.007-2.105-.549-2.754-.61-.712-1.692-1.09-3.13-1.09Zm.496 3.995c-.234 1.53-1.412 1.53-2.551 1.53h-.648l.455-2.858a.356.356 0 0 1 .353-.3h.297c.776 0 1.508 0 1.886.44.225.261.294.65.208 1.188ZM89.004 27.864h-2.056a.355.355 0 0 0-.353.3l-.09.571-.145-.207c-.446-.642-1.438-.856-2.43-.856-2.272 0-4.213 1.71-4.591 4.107-.196 1.197.082 2.34.766 3.138.628.734 1.523 1.04 2.59 1.04 1.832 0 2.848-1.17 2.848-1.17l-.092.568a.356.356 0 0 0 .354.411h1.852a.595.595 0 0 0 .59-.5l1.112-6.992a.357.357 0 0 0-.355-.41Zm-2.867 3.975c-.198 1.167-1.131 1.95-2.321 1.95-.596 0-1.075-.19-1.381-.55-.304-.358-.419-.868-.323-1.435a2.299 2.299 0 0 1 2.305-1.966c.584 0 1.059.192 1.372.556.314.368.439.88.348 1.445ZM91.43 24.218l-1.764 11.139a.356.356 0 0 0 .353.41h1.772a.595.595 0 0 0 .59-.5l1.739-10.939a.356.356 0 0 0-.353-.41h-1.985a.358.358 0 0 0-.353.3Z"/>
    <path fill="#253B80" d="m21.064 37.893.328-2.072-.732-.017h-3.494l2.428-15.29a.2.2 0 0 1 .197-.167h5.892c1.956 0 3.306.404 4.01 1.202.331.374.541.765.643 1.196.107.451.109.99.005 1.649l-.008.048v.421l.33.186c.279.147.5.315.67.507.282.32.465.726.542 1.209.08.495.053 1.085-.077 1.753-.15.769-.395 1.438-.724 1.986a4.094 4.094 0 0 1-1.146 1.247 4.665 4.665 0 0 1-1.544.692 7.75 7.75 0 0 1-1.93.221h-.458a1.376 1.376 0 0 0-1.364 1.156l-.034.187-.58 3.652-.027.134c-.007.042-.019.063-.036.078a.098.098 0 0 1-.06.022h-2.831Z"/>
    <path fill="#fff" fill-opacity=".7" d="M30.976 24.49c-.017.112-.037.226-.06.344-.777 3.96-3.435 5.33-6.83 5.33h-1.728c-.416 0-.765.299-.83.705l-.885 5.574-.25 1.58a.44.44 0 0 0 .436.508h3.066a.736.736 0 0 0 .728-.618l.03-.154.578-3.638.037-.2a.736.736 0 0 1 .728-.618h.459c2.97 0 5.295-1.198 5.975-4.663.284-1.448.137-2.657-.614-3.507a2.93 2.93 0 0 0-.84-.642Z" opacity=".6"/>
    <path fill="#fff" d="M30.164 24.169a6.117 6.117 0 0 0-.756-.167 9.672 9.672 0 0 0-1.524-.11h-4.618a.738.738 0 0 0-.727.618l-.983 6.18-.028.18a.838.838 0 0 1 .83-.707h1.728c3.395 0 6.053-1.369 6.83-5.33.023-.117.043-.231.06-.343a4.156 4.156 0 0 0-.812-.321Z" opacity=".7"/>
    <path fill="#fff" d="M22.538 24.51a.73.73 0 0 1 .729-.618h4.617a9.66 9.66 0 0 1 1.524.11 6.117 6.117 0 0 1 .93.22c.23.076.442.165.639.268.231-1.463-.002-2.46-.799-3.363-.879-.993-2.465-1.419-4.494-1.419h-5.892a.84.84 0 0 0-.832.707l-2.454 15.447a.504.504 0 0 0 .5.581h3.637l.913-5.754.982-6.179Z"/>
  </g>
  <defs>
    <clipPath id="a">
      <path fill="#fff" d="M16.5 17h78v26h-78z"/>
    </clipPath>
  </defs>
</svg>
