<svg width="104" height="68" viewBox="0 0 104 68" fill="none" xmlns="http://www.w3.org/2000/svg">
<g filter="url(#filter0_dd_13678_8134)">
<rect x="3.05261" y="2" width="97.8947" height="62" rx="12" fill="black"/>
</g>
<g clip-path="url(#clip0_13678_8134)">
<path d="M63.2308 29.9188C61.9517 28.7582 60.4073 28.1908 58.622 28.1908C56.8611 28.1908 55.3168 28.7589 54.0369 29.9188C52.7578 31.0542 52.1075 32.6346 52.1075 34.6593C52.1075 36.6839 52.7578 38.2629 54.0369 39.4235C55.316 40.559 56.8611 41.127 58.622 41.127C60.4073 41.127 61.9517 40.559 63.2308 39.4235C64.5343 38.2629 65.1846 36.6832 65.1846 34.6593C65.1846 32.6354 64.5335 31.0542 63.2308 29.9188ZM56.2101 37.2506C55.5354 36.5846 55.1956 35.7198 55.1956 34.6586C55.1956 33.5973 55.5326 32.7333 56.2101 32.091C56.5243 31.7708 56.9001 31.5181 57.3146 31.3484C57.7291 31.1787 58.1737 31.0955 58.6213 31.1039C59.0727 31.0954 59.521 31.1785 59.9397 31.3481C60.3583 31.5177 60.7385 31.7704 61.0576 32.091C61.756 32.7333 62.0958 33.5966 62.0958 34.6586C62.0958 35.7206 61.7588 36.5838 61.0576 37.2506C60.3829 37.8921 59.562 38.2132 58.6213 38.2132C58.1761 38.2203 57.7338 38.1389 57.32 37.9737C56.9062 37.8085 56.529 37.5627 56.2101 37.2506ZM69.7474 40.7807V23.8406H66.7074V40.7807H69.7474ZM79.5593 28.5364V35.2958C79.5593 36.9244 78.6989 38.0044 77.0614 38.0044C75.3958 38.0044 74.5584 36.9258 74.5584 35.2958V28.5364H71.5126V35.8142C71.5126 38.6337 73.2499 41.1263 77.0614 41.1263H77.085C80.8728 41.1263 82.6072 38.5782 82.6072 35.8142V28.5364H79.5593ZM48.8725 28.5364L45.8325 36.8308L42.7925 28.5364H39.5597L44.4108 40.7814H47.2586L52.109 28.5364H48.8725ZM39.574 34.313C39.574 32.536 39.0198 31.0794 37.9335 29.9188C36.8473 28.7582 35.4499 28.1908 33.7363 28.1908C31.9754 28.1908 30.4784 28.8086 29.248 30.0174C28.0406 31.2278 27.4391 32.7578 27.4391 34.6586C27.4391 36.5594 28.0421 38.1153 29.2244 39.3242C30.4318 40.5345 31.8794 41.1263 33.5922 41.1263C36.2235 41.1263 38.0805 39.9412 39.2126 37.5465L36.9455 36.213C36.1992 37.7186 35.1115 38.4594 33.6403 38.4594C31.8313 38.4594 30.5522 37.2743 30.3586 35.3987H39.5733V34.3122L39.574 34.313ZM33.6381 30.5603C35.351 30.5603 36.486 31.5474 36.7749 33.1278H30.3572C30.8168 31.6713 32.0701 30.5603 33.6388 30.5603H33.6381ZM27.4384 40.7807L23.3595 33.4742C25.9399 32.5115 27.219 30.8332 27.219 28.3888C27.2218 25.4015 24.9038 23.5 21.2128 23.5H14V40.7807H17.1848V33.7701H19.8878L23.7954 40.7814L27.4384 40.7807ZM21.2128 26.3634C23.0949 26.3634 24.0363 27.1288 24.0363 28.6343C24.0363 30.1398 23.0942 30.9052 21.2128 30.9052H17.1848V26.3634H21.2128ZM87.7609 41.1263C85.8042 41.1263 84.2175 39.502 84.2175 37.4975V25.228H87.2575V28.5407H89.8645V31.0586H87.2575V37.2974C87.2575 37.8849 87.7229 38.3608 88.2979 38.3608H89.8645V41.1263H87.7609Z" fill="white"/>
</g>
<defs>
<filter id="filter0_dd_13678_8134" x="0.0526123" y="0" width="103.895" height="68" filterUnits="userSpaceOnUse" color-interpolation-filters="sRGB">
<feFlood flood-opacity="0" result="BackgroundImageFix"/>
<feColorMatrix in="SourceAlpha" type="matrix" values="0 0 0 0 0 0 0 0 0 0 0 0 0 0 0 0 0 0 127 0" result="hardAlpha"/>
<feMorphology radius="1" operator="dilate" in="SourceAlpha" result="effect1_dropShadow_13678_8134"/>
<feOffset/>
<feColorMatrix type="matrix" values="0 0 0 0 0.247059 0 0 0 0 0.247059 0 0 0 0 0.266667 0 0 0 0.05 0"/>
<feBlend mode="normal" in2="BackgroundImageFix" result="effect1_dropShadow_13678_8134"/>
<feColorMatrix in="SourceAlpha" type="matrix" values="0 0 0 0 0 0 0 0 0 0 0 0 0 0 0 0 0 0 127 0" result="hardAlpha"/>
<feOffset dy="1"/>
<feGaussianBlur stdDeviation="1.5"/>
<feComposite in2="hardAlpha" operator="out"/>
<feColorMatrix type="matrix" values="0 0 0 0 0.247059 0 0 0 0 0.247059 0 0 0 0 0.266667 0 0 0 0.15 0"/>
<feBlend mode="normal" in2="effect1_dropShadow_13678_8134" result="effect2_dropShadow_13678_8134"/>
<feBlend mode="normal" in="SourceGraphic" in2="effect2_dropShadow_13678_8134" result="shape"/>
</filter>
<clipPath id="clip0_13678_8134">
<rect width="76" height="18" fill="white" transform="translate(14 23.5)"/>
</clipPath>
</defs>
</svg>
