<svg xmlns="http://www.w3.org/2000/svg" width="280" height="155" fill="none">
  <path fill="#fff" d="M0 0h280v155H0z"/>
  <rect width="122" height="12" x="79" y="11" fill="#EFEFEF" rx="6"/>
  <rect width="12" height="12" x="254" y="11" fill="#E2E2E2" rx="6"/>
  <circle cx="17.5" cy="16.5" r="5.5" fill="#ED6A5E"/>
  <circle cx="32.5" cy="16.5" r="5.5" fill="#F4BF4F"/>
  <circle cx="47.5" cy="16.5" r="5.5" fill="#61C554"/>
  <mask id="a" fill="#fff">
    <path d="M45 57a8 8 0 0 1 8-8h174a8 8 0 0 1 8 8v98H45V57Z"/>
  </mask>
  <path fill="#fff" d="M45 57a8 8 0 0 1 8-8h174a8 8 0 0 1 8 8v98H45V57Z"/>
  <path fill="#EEE" d="M44 57a9 9 0 0 1 9-9h174a9 9 0 0 1 9 9h-2a7 7 0 0 0-7-7H53a7 7 0 0 0-7 7h-2Zm191 98H45h190Zm-191 0V57a9 9 0 0 1 9-9v2a7 7 0 0 0-7 7v98h-2ZM227 48a9 9 0 0 1 9 9v98h-2V57a7 7 0 0 0-7-7v-2Z" mask="url(#a)"/>
  <path fill="#202223" d="M65.216 68.868c-.396.42-.852.624-1.368.624-.42 0-.78-.156-1.188-.588 1.788-.576 3-2.136 3-4.104 0-2.508-1.956-4.344-4.596-4.344-2.652 0-4.596 1.848-4.596 4.344 0 2.28 1.62 4.02 3.924 4.308 1.296 1.368 2.172 1.824 3.42 1.824.924 0 1.716-.36 2.268-1.032l-.864-1.032Zm-6.78-4.068c0-1.596 1.128-2.688 2.628-2.688 1.5 0 2.628 1.092 2.628 2.688s-1.128 2.688-2.628 2.688c-1.5 0-2.628-1.092-2.628-2.688Zm9.261-.012c.648 0 1.164-.492 1.164-1.176 0-.696-.516-1.152-1.164-1.152-.648 0-1.164.456-1.164 1.152 0 .684.516 1.176 1.164 1.176Zm0 4.308c.648 0 1.164-.492 1.164-1.176 0-.696-.516-1.152-1.164-1.152-.648 0-1.164.456-1.164 1.152 0 .684.516 1.176 1.164 1.176Zm11.797-4.452c.66-.324 1.128-.96 1.128-1.872 0-1.356-1.08-2.172-3.012-2.172h-3.768V69h4.008c2.124 0 3.216-.828 3.216-2.268 0-1.116-.624-1.824-1.572-2.088Zm-1.992-3.072c1.224 0 1.92.456 1.92 1.344 0 .888-.696 1.344-1.92 1.344h-2.46v-2.688h2.46Zm.3 6.456h-2.76v-2.796h2.76c1.332 0 2.052.432 2.052 1.404s-.72 1.392-2.052 1.392Zm10.702-2.172c0-1.956-1.308-3.276-3.144-3.276s-3.192 1.356-3.192 3.24c0 1.896 1.368 3.252 3.42 3.252 1.056 0 1.932-.36 2.508-1.032l-.636-.744c-.468.516-1.092.768-1.836.768-1.26 0-2.16-.744-2.304-1.86h5.16c.012-.108.024-.252.024-.348Zm-3.144-2.304c1.116 0 1.92.756 2.04 1.824h-4.08c.12-1.08.936-1.824 2.04-1.824Zm6.568 5.52c1.692 0 2.748-.732 2.748-1.884 0-2.472-4.032-1.248-4.032-2.748 0-.504.492-.876 1.5-.876.624 0 1.26.132 1.836.504l.492-.912c-.552-.36-1.488-.576-2.316-.576-1.632 0-2.652.768-2.652 1.908 0 2.532 4.02 1.296 4.02 2.724 0 .54-.444.864-1.512.864-.828 0-1.692-.276-2.232-.66l-.48.912c.528.42 1.572.744 2.628.744ZM99.33 67.8c-.24.192-.564.3-.9.3-.636 0-.996-.384-.996-1.068v-3.444h1.824v-.948h-1.824v-1.392h-1.152v1.392h-1.08v.948h1.08v3.492c0 1.284.732 1.992 2.016 1.992.516 0 1.044-.144 1.392-.444l-.36-.828Zm9.476-5.16-2.232 5.1-2.184-5.1h-1.2l2.784 6.36h1.176l2.784-6.36h-1.128Zm2.779-1.224c.456 0 .78-.336.78-.768 0-.408-.336-.732-.78-.732a.758.758 0 0 0-.78.756c0 .42.336.744.78.744ZM111.01 69h1.152v-6.36h-1.152V69Zm8.2-8.904V63.6c-.528-.684-1.32-1.02-2.22-1.02-1.86 0-3.216 1.296-3.216 3.24 0 1.944 1.356 3.252 3.216 3.252.936 0 1.752-.36 2.268-1.08V69h1.104v-8.904h-1.152Zm-2.124 7.968c-1.224 0-2.148-.888-2.148-2.244 0-1.356.924-2.232 2.148-2.232 1.212 0 2.136.876 2.136 2.232 0 1.356-.924 2.244-2.136 2.244Zm11.203-2.208c0-1.956-1.308-3.276-3.144-3.276s-3.192 1.356-3.192 3.24c0 1.896 1.368 3.252 3.42 3.252 1.056 0 1.932-.36 2.508-1.032l-.636-.744c-.468.516-1.092.768-1.836.768-1.26 0-2.16-.744-2.304-1.86h5.16c.012-.108.024-.252.024-.348Zm-3.144-2.304c1.116 0 1.92.756 2.04 1.824h-4.08c.12-1.08.936-1.824 2.04-1.824Zm7.468 5.52c1.908 0 3.3-1.356 3.3-3.252 0-1.896-1.392-3.24-3.3-3.24s-3.312 1.344-3.312 3.24c0 1.896 1.404 3.252 3.312 3.252Zm0-1.008c-1.224 0-2.148-.888-2.148-2.244 0-1.356.924-2.232 2.148-2.232 1.224 0 2.136.876 2.136 2.232 0 1.356-.912 2.244-2.136 2.244Zm13.108-5.424v.984c-.54-.696-1.404-1.044-2.352-1.044-1.836 0-3.228 1.236-3.228 3.072s1.392 3.084 3.228 3.084c.912 0 1.74-.324 2.292-.984v.504c0 1.44-.684 2.136-2.184 2.136-.936 0-1.86-.324-2.448-.828l-.552.888c.696.624 1.872.948 3.036.948 2.16 0 3.3-1.02 3.3-3.264V62.64h-1.092Zm-2.22 5.088c-1.284 0-2.196-.852-2.196-2.076 0-1.236.912-2.064 2.196-2.064 1.272 0 2.184.828 2.184 2.064 0 1.224-.912 2.076-2.184 2.076Zm7.829-5.148c-1.02 0-1.968.288-2.628.816l.48.864c.492-.42 1.26-.684 2.016-.684 1.14 0 1.704.564 1.704 1.536v.228h-1.824c-1.896 0-2.556.84-2.556 1.86 0 1.104.912 1.872 2.352 1.872.996 0 1.704-.336 2.088-.912V69h1.092v-3.84c0-1.74-.984-2.58-2.724-2.58Zm-.264 5.604c-.876 0-1.404-.396-1.404-1.032 0-.54.324-.984 1.464-.984h1.776v.888c-.288.732-.972 1.128-1.836 1.128Zm13.076-5.604c-1.08 0-1.968.456-2.448 1.176-.42-.792-1.236-1.176-2.208-1.176-.96 0-1.74.36-2.196 1.008v-.948h-1.104V69h1.152v-3.276c0-1.38.756-2.112 1.908-2.112 1.044 0 1.644.612 1.644 1.86V69h1.152v-3.276c0-1.38.756-2.112 1.908-2.112 1.044 0 1.644.612 1.644 1.86V69h1.152v-3.66c0-1.872-1.056-2.76-2.604-2.76Zm10.507 3.276c0-1.956-1.308-3.276-3.144-3.276s-3.192 1.356-3.192 3.24c0 1.896 1.368 3.252 3.42 3.252 1.056 0 1.932-.36 2.508-1.032l-.636-.744c-.468.516-1.092.768-1.836.768-1.26 0-2.16-.744-2.304-1.86h5.16c.012-.108.024-.252.024-.348Zm-3.144-2.304c1.116 0 1.92.756 2.04 1.824h-4.08c.12-1.08.936-1.824 2.04-1.824Zm5.825 2.796h1.2c0-1.572 2.124-1.704 2.124-3.708 0-1.332-1.116-2.136-2.844-2.136-1.404 0-2.448.492-3.108 1.344l.876.624c.48-.612 1.176-.948 2.148-.948 1.08 0 1.716.528 1.716 1.296 0 1.38-2.112 1.644-2.112 3.528Zm.612 2.724a.758.758 0 0 0 .768-.768.75.75 0 0 0-.768-.768.754.754 0 0 0-.78.768c0 .42.324.768.78.768Z"/>
  <path fill="#000" d="m59.684 143.282 2.996-2.884c1.33-1.274 1.61-2.128 1.61-3.08 0-1.68-1.316-2.73-3.36-2.73-1.526 0-2.828.546-3.584 1.484l.952.826c.602-.728 1.456-1.064 2.506-1.064 1.372 0 2.086.616 2.086 1.624 0 .616-.196 1.232-1.232 2.24l-3.99 3.85v.952h7.042v-1.218h-5.026Z"/>
  <path fill="#8C9196" d="M64.853 145.7h1.044l3.96-11.304h-1.043l-3.96 11.304Zm9.986-5.604c.768-.36 1.188-.984 1.188-1.812 0-1.404-1.224-2.28-3.048-2.28-1.812 0-3.024.876-3.024 2.28 0 .828.408 1.452 1.176 1.812-.948.36-1.476 1.068-1.476 2.028 0 1.524 1.284 2.472 3.324 2.472 2.052 0 3.348-.948 3.348-2.472 0-.96-.528-1.656-1.488-2.028Zm-1.86-3.12c1.128 0 1.872.516 1.872 1.356 0 .828-.708 1.344-1.872 1.344-1.152 0-1.836-.516-1.836-1.344 0-.84.708-1.356 1.836-1.356Zm0 6.648c-1.332 0-2.124-.588-2.124-1.536 0-.924.792-1.5 2.124-1.5s2.148.576 2.148 1.5c0 .948-.816 1.536-2.148 1.536Z"/>
  <rect width="34" height="22" x="189" y="128" fill="#164ED0" rx="11"/>
  <path stroke="#fff" stroke-linecap="round" stroke-linejoin="round" stroke-width="1.5" d="M201.188 139h9.624M206.875 135.062l3.937 3.938-3.937 3.938"/>
  <rect width="10" height="15" x="56" y="78" fill="#fff" rx="5"/>
  <path fill="#8C9196" d="M56.169 81.6v.768h1.98V90h.864v-8.4h-2.844Zm5.5 8.46a.656.656 0 0 0 .648-.66c0-.372-.3-.648-.648-.648a.635.635 0 0 0-.636.648c0 .372.288.66.636.66Z"/>
  <rect width="115" height="10" x="74" y="80.5" fill="#EEE" rx="5"/>
  <path fill="#8C9196" d="m58 105.232 2.856-2.808c1.128-1.104 1.38-1.824 1.38-2.628 0-1.404-1.08-2.268-2.784-2.268-1.284 0-2.328.432-2.976 1.2l.612.528c.552-.636 1.308-.936 2.292-.936 1.284 0 1.968.6 1.968 1.572 0 .576-.18 1.14-1.128 2.076l-3.492 3.42V106h5.892v-.768H58Zm6.47.828a.656.656 0 0 0 .647-.66c0-.372-.3-.648-.648-.648a.635.635 0 0 0-.636.648c0 .372.288.66.636.66Z"/>
  <rect width="62" height="10" x="74" y="96.5" fill="#2B735D" rx="5"/>
  <rect width="10" height="15" x="56" y="110" fill="#fff" rx="5"/>
  <path fill="#8C9196" d="m59.822 117.2 2.376-2.988v-.612h-5.4v.768h4.296l-2.328 2.916v.636h.6c1.56 0 2.268.66 2.268 1.668 0 1.044-.768 1.692-2.16 1.692-1.092 0-2.064-.408-2.604-.972l-.42.684c.648.66 1.812 1.08 3.024 1.08 2.028 0 3.048-1.08 3.048-2.484 0-1.344-.9-2.292-2.7-2.388Zm4.565 4.86a.656.656 0 0 0 .648-.66c0-.372-.3-.648-.648-.648a.635.635 0 0 0-.636.648c0 .372.288.66.636.66Z"/>
  <rect width="96" height="10" x="74" y="112.5" fill="#EEE" rx="5"/>
  <path fill="#EFEFEF" d="M0 34h280v1H0z"/>
</svg>
